#N canvas 417 23 1391 886 12;
#X obj 995 828 tabplay~;
#X obj 65 910 dac~ 1 2;
#X obj 66 880 *~;
#X obj 117 877 *~;
#X obj 168 751 vsl 15 128 0 127 0 0 empty empty empty 0 -9 0 10 -262144
-1 -1 300 1;
#N canvas 0 22 450 278 (subpatch) 0;
#X array channelL 688391 float 2;
#X coords 0 1 688391 -1 200 140 1;
#X restore 845 271 graph;
#N canvas 0 22 450 278 (subpatch) 0;
#X array channelR 688391 float 2;
#X coords 0 1 688391 -1 200 140 1 0 0;
#X restore 851 451 graph;
#X obj 242 2 bng 15 250 50 0 empty empty empty 17 7 0 10 -262144 -1
-1;
#X obj 240 36 openpanel;
#X msg 254 91 read -resize \$1 channelL channelR;
#X obj 262 147 soundfiler;
#X floatatom 278 179 12 0 0 0 - - -;
#X obj 284 248 expr 44100 / $f1;
#X obj 377 218 s sampleSize;
#X floatatom 197 168 5 0 0 0 - - -;
#X obj 74 543 phasor~;
#X obj 74 609 *~;
#X obj 121 577 r sampleSize;
#X obj 56 654 tabread4~ channelL;
#X obj 35 22 \; pd dsp \$1;
#X obj 108 722 tabread4~ channelR;
#X obj 490 293 metro 50;
#X obj 489 340 snapshot~;
#X floatatom 489 375 12 0 0 0 - - -;
#X obj 494 470 /;
#X obj 511 412 r sampleSize;
#X floatatom 492 512 5 0 0 0 - - -;
#X obj 491 262 tgl 15 0 empty empty empty 17 7 0 10 -262144 -1 -1 0
1;
#X obj 489 620 hsl 195 15 0 1 0 0 empty empty empty -2 -8 0 10 -262144
-1 -1 18135 1;
#X obj 33 279 hsl 195 15 -1 1 0 0 empty empty empty -2 -8 0 10 -262144
-1 -1 9700 1;
#X floatatom 75 482 5 0 0 0 - - -;
#X msg 31 187 0.076;
#X msg 121 388 0;
#X msg 24 489 0;
#X obj 122 331 t b b;
#X obj 160 90 bng 15 250 50 0 empty empty empty 17 7 0 10 -262144 -1
-1;
#X obj 559 463 moses 0.4;
#X floatatom 559 509 5 0 0 0 - - -;
#X floatatom 617 499 5 0 0 0 - - -;
#X obj 616 544 s retrig;
#X obj 179 420 r retrig;
#X obj 614 261 hsl 195 15 -1 1 0 0 empty empty empty -2 -8 0 10 -262144
-1 -1 9700 1;
#X floatatom 611 302 5 0 0 0 - - -;
#X obj 612 342 s startBufferValue;
#X obj 209 464 r startBufferValue;
#X floatatom 177 499 5 0 0 0 - - -;
#X obj 179 455 bng 15 250 50 0 empty empty empty 17 7 0 10 -262144
-1 -1;
#X obj 618 383 hsl 195 15 -1 1 0 0 empty empty empty -2 -8 0 10 -262144
-1 -1 19300 1;
#X floatatom 620 432 5 0 0 0 - - -;
#X text 173 301 Speed;
#X obj 4 9;
#N canvas 576 54 1195 901 analyzer 1;
#X obj 53 158 spigot;
#X obj 18 99 bonk~;
#X obj 91 99 tgl 15 0 empty empty empty 0 -6 0 8 -262144 -1 -1 1 1
;
#X obj 70 196 print cooked;
#X obj 132 132 s bonk-cooked;
#X msg 18 20 thresh 2.5 50;
#X obj 55 244 unpack f f f;
#X obj 145 23 inlet~;
#X floatatom 96 326 5 0 0 0 - - -;
#X floatatom 364 415 5 0 0 0 - - -;
#X obj 276 67 inlet;
#X floatatom 310 142 5 0 0 0 - - -;
#X obj 502 37 table onsets;
#X obj 118 729 tabwrite onsets;
#X obj 125 473 bng 15 250 50 0 empty empty empty 17 7 0 10 -262144
-1 -1;
#X obj 552 336 counter;
#X obj 178 494 float;
#X obj 249 499 +;
#X msg 326 450;
#X floatatom 276 461 5 0 0 0 - - -;
#X floatatom 185 550 5 0 0 0 - - -;
#X obj 407 342 f;
#X obj 472 337 + 1;
#X floatatom 406 383 5 0 0 0 - - -;
#X obj 392 62 inlet;
#X floatatom 399 163 5 0 0 0 - - -;
#X obj 81 383 > 80;
#X obj 397 121 bng 15 250 50 0 empty empty empty 17 7 0 10 -262144
-1 -1;
#X floatatom 135 356 5 0 0 0 - - -;
#X floatatom 16 422 5 0 0 0 - - -;
#X floatatom 195 406 5 0 0 0 - - -;
#X obj 200 364 bng 15 250 50 0 empty empty empty 17 7 0 10 -262144
-1 -1;
#X obj 273 202 s currentTime;
#X obj 65 637 r currentTime;
#X floatatom 123 677 5 0 0 0 - - -;
#X floatatom 123 699 5 0 0 0 - - -;
#X obj 555 482 tgl 15 0 empty empty empty 17 7 0 10 -262144 -1 -1 0
1;
#X obj 553 532 metro 500;
#X obj 402 691 float;
#X obj 473 696 +;
#X floatatom 500 658 5 0 0 0 - - -;
#X floatatom 409 747 5 0 0 0 - - -;
#X floatatom 359 553 5 0 0 0 - - -;
#X floatatom 442 639 5 0 0 0 - - -;
#X obj 424 561 bng 15 250 50 0 empty empty empty 17 7 0 10 -262144
-1 -1;
#X obj 572 681 tabread onsets;
#X floatatom 572 753 5 0 0 0 - - -;
#X floatatom 572 645 5 0 10 0 - - -;
#X connect 0 0 3 0;
#X connect 0 0 6 0;
#X connect 1 1 0 0;
#X connect 1 1 4 0;
#X connect 2 0 0 1;
#X connect 5 0 1 0;
#X connect 6 1 8 0;
#X connect 6 2 9 0;
#X connect 7 0 1 0;
#X connect 8 0 26 0;
#X connect 10 0 11 0;
#X connect 11 0 32 0;
#X connect 14 0 16 0;
#X connect 14 0 21 0;
#X connect 16 0 17 0;
#X connect 16 0 20 0;
#X connect 17 0 16 1;
#X connect 18 0 19 0;
#X connect 19 0 17 1;
#X connect 20 0 13 1;
#X connect 21 0 22 0;
#X connect 21 0 23 0;
#X connect 22 0 21 1;
#X connect 24 0 27 0;
#X connect 25 0 21 0;
#X connect 26 0 29 0;
#X connect 26 0 14 0;
#X connect 26 0 19 0;
#X connect 27 0 25 0;
#X connect 28 0 26 1;
#X connect 30 0 16 0;
#X connect 31 0 30 0;
#X connect 33 0 13 0;
#X connect 34 0 13 0;
#X connect 34 0 35 0;
#X connect 36 0 37 0;
#X connect 37 0 44 0;
#X connect 38 0 39 0;
#X connect 38 0 41 0;
#X connect 39 0 38 1;
#X connect 40 0 39 1;
#X connect 43 0 38 0;
#X connect 44 0 38 0;
#X connect 45 0 46 0;
#X connect 47 0 45 0;
#X restore 161 904 pd analyzer;
#N canvas 0 23 674 575 serialcom 0;
#X msg 218 99 devicename /dev/cu.usbmodem1413401;
#X msg 334 22 devices;
#X obj 125 207 comport 2 9600 /dev/cu.usbmodem1413401;
#X floatatom 101 304 5 0 0 0 - - -;
#X floatatom 227 245 5 0 0 0 - - -;
#X msg 120 128 open 2;
#X floatatom 156 336 5 0 0 0 - - -;
#X obj 136 372 ==;
#X floatatom 136 406 5 0 0 0 - - -;
#X obj 135 439 spigot;
#X floatatom 135 490 5 0 0 0 - - -;
#X obj 135 465 bng 15 250 50 0 empty empty empty 17 7 0 10 -262144
-1 -1;
#X obj 155 301 bng 15 250 50 0 empty empty empty 17 7 0 10 -262144
-1 -1;
#X floatatom 234 338 5 0 0 0 - - -;
#X obj 214 374 ==;
#X floatatom 214 408 5 0 0 0 - - -;
#X obj 213 441 spigot;
#X floatatom 213 492 5 0 0 0 - - -;
#X obj 213 467 bng 15 250 50 0 empty empty empty 17 7 0 10 -262144
-1 -1;
#X obj 233 303 bng 15 250 50 0 empty empty empty 17 7 0 10 -262144
-1 -1;
#X floatatom 311 336 5 0 0 0 - - -;
#X obj 291 372 ==;
#X floatatom 291 406 5 0 0 0 - - -;
#X obj 290 439 spigot;
#X floatatom 290 490 5 0 0 0 - - -;
#X obj 290 465 bng 15 250 50 0 empty empty empty 17 7 0 10 -262144
-1 -1;
#X obj 310 301 bng 15 250 50 0 empty empty empty 17 7 0 10 -262144
-1 -1;
#X floatatom 407 329 5 0 0 0 - - -;
#X obj 387 365 ==;
#X floatatom 387 399 5 0 0 0 - - -;
#X obj 386 432 spigot;
#X floatatom 386 483 5 0 0 0 - - -;
#X obj 386 458 bng 15 250 50 0 empty empty empty 17 7 0 10 -262144
-1 -1;
#X obj 406 294 bng 15 250 50 0 empty empty empty 17 7 0 10 -262144
-1 -1;
#X floatatom 485 331 5 0 0 0 - - -;
#X obj 465 367 ==;
#X floatatom 465 401 5 0 0 0 - - -;
#X obj 464 434 spigot;
#X floatatom 464 485 5 0 0 0 - - -;
#X obj 464 460 bng 15 250 50 0 empty empty empty 17 7 0 10 -262144
-1 -1;
#X obj 484 296 bng 15 250 50 0 empty empty empty 17 7 0 10 -262144
-1 -1;
#X floatatom 562 329 5 0 0 0 - - -;
#X obj 542 365 ==;
#X floatatom 542 399 5 0 0 0 - - -;
#X obj 541 432 spigot;
#X floatatom 541 483 5 0 0 0 - - -;
#X obj 541 458 bng 15 250 50 0 empty empty empty 17 7 0 10 -262144
-1 -1;
#X obj 561 294 bng 15 250 50 0 empty empty empty 17 7 0 10 -262144
-1 -1;
#X connect 0 0 2 0;
#X connect 1 0 2 0;
#X connect 2 0 3 0;
#X connect 2 0 4 0;
#X connect 2 0 12 0;
#X connect 2 0 19 0;
#X connect 2 0 26 0;
#X connect 4 0 7 0;
#X connect 4 0 14 0;
#X connect 4 0 21 0;
#X connect 4 0 33 0;
#X connect 4 0 40 0;
#X connect 4 0 47 0;
#X connect 4 0 28 0;
#X connect 4 0 35 0;
#X connect 5 0 2 0;
#X connect 6 0 7 1;
#X connect 7 0 8 0;
#X connect 8 0 9 1;
#X connect 8 0 9 0;
#X connect 9 0 11 0;
#X connect 11 0 10 0;
#X connect 12 0 6 0;
#X connect 13 0 14 1;
#X connect 14 0 15 0;
#X connect 15 0 16 1;
#X connect 15 0 16 0;
#X connect 16 0 18 0;
#X connect 18 0 17 0;
#X connect 19 0 13 0;
#X connect 20 0 21 1;
#X connect 21 0 22 0;
#X connect 22 0 23 1;
#X connect 22 0 23 0;
#X connect 23 0 25 0;
#X connect 25 0 24 0;
#X connect 26 0 20 0;
#X connect 27 0 28 1;
#X connect 28 0 29 0;
#X connect 29 0 30 1;
#X connect 29 0 30 0;
#X connect 30 0 32 0;
#X connect 32 0 31 0;
#X connect 33 0 27 0;
#X connect 34 0 35 1;
#X connect 35 0 36 0;
#X connect 36 0 37 1;
#X connect 36 0 37 0;
#X connect 37 0 39 0;
#X connect 39 0 38 0;
#X connect 40 0 34 0;
#X connect 41 0 42 1;
#X connect 42 0 43 0;
#X connect 43 0 44 1;
#X connect 43 0 44 0;
#X connect 44 0 46 0;
#X connect 46 0 45 0;
#X connect 47 0 41 0;
#X restore 795 105 pd serialcom;
#X text 892 105 Recieve Messages From User Input;
#X obj 517 797 spigot;
#X obj 656 682 t b f;
#X floatatom 700 648 5 0 0 0 - - -;
#X msg 784 679 0.999;
#X obj 598 868 tgl 15 0 empty empty empty 17 7 0 10 -262144 -1 -1 1
1;
#X obj 638 817 spigot;
#X obj 587 724 > 0.933;
#X floatatom 661 757 5 0 0 0 - - -;
#X obj 664 870 bng 15 250 50 0 empty empty empty 17 7 0 10 -262144
-1 -1;
#X obj 540 181 bng 15 250 50 0 empty empty empty 17 7 0 10 -262144
-1 -1;
#X text 568 181 Start Analysis;
#X msg 580 226 0;
#X obj 698 905 s stopPlayback;
#X obj 111 208 r stopPlayback;
#X msg 85 231 0;
#X obj 686 227 s startPlayback;
#X obj 29 128 r startPlayback;
#X msg 712 856 0;
#X connect 2 0 1 0;
#X connect 3 0 1 1;
#X connect 3 0 51 0;
#X connect 4 0 2 1;
#X connect 4 0 3 1;
#X connect 7 0 8 0;
#X connect 8 0 9 0;
#X connect 9 0 10 0;
#X connect 10 0 11 0;
#X connect 11 0 12 0;
#X connect 11 0 13 0;
#X connect 12 0 14 0;
#X connect 12 0 15 0;
#X connect 14 0 31 0;
#X connect 15 0 16 0;
#X connect 16 0 18 0;
#X connect 16 0 20 0;
#X connect 16 0 22 0;
#X connect 17 0 16 1;
#X connect 18 0 2 0;
#X connect 20 0 3 0;
#X connect 21 0 22 0;
#X connect 22 0 23 0;
#X connect 23 0 24 0;
#X connect 24 0 26 0;
#X connect 25 0 24 1;
#X connect 26 0 28 0;
#X connect 26 0 36 0;
#X connect 26 0 51 1;
#X connect 26 0 60 0;
#X connect 27 0 21 0;
#X connect 29 0 30 0;
#X connect 30 0 15 0;
#X connect 31 0 29 0;
#X connect 32 0 15 1;
#X connect 33 0 15 0;
#X connect 34 0 32 0;
#X connect 34 1 33 0;
#X connect 35 0 34 0;
#X connect 36 0 37 0;
#X connect 36 1 38 0;
#X connect 38 0 39 0;
#X connect 40 0 46 0;
#X connect 41 0 42 0;
#X connect 42 0 43 0;
#X connect 44 0 45 0;
#X connect 45 0 15 1;
#X connect 46 0 45 0;
#X connect 47 0 48 0;
#X connect 48 0 36 1;
#X connect 55 1 60 1;
#X connect 56 0 55 0;
#X connect 56 0 60 1;
#X connect 57 0 55 0;
#X connect 57 0 60 1;
#X connect 59 0 62 0;
#X connect 60 0 61 0;
#X connect 60 0 58 0;
#X connect 60 0 59 0;
#X connect 61 0 59 1;
#X connect 62 0 27 0;
#X connect 62 0 66 0;
#X connect 62 0 71 0;
#X connect 62 0 51 2;
#X connect 63 0 65 0;
#X connect 63 0 27 0;
#X connect 63 0 69 0;
#X connect 65 0 43 0;
#X connect 67 0 68 0;
#X connect 68 0 29 0;
#X connect 70 0 31 0;
#X connect 71 0 61 0;
