#N canvas 2 23 1920 980 12;
#X obj 1278 906 tabplay~;
#X obj 20 946 dac~ 1 2;
#X obj 66 880 *~;
#X obj 117 869 *~;
#X obj 147 744 vsl 15 128 0 127 0 0 empty empty empty 0 -9 0 10 -262144
-1 -1 0 1;
#N canvas 0 22 450 278 (subpatch) 0;
#X array channelL 244800 float 2;
#X coords 0 1 244800 -1 200 140 1;
#X restore 1151 26 graph;
#N canvas 0 22 450 278 (subpatch) 0;
#X array channelR 244800 float 2;
#X coords 0 1 244800 -1 200 140 1 0 0;
#X restore 1157 206 graph;
#X obj 242 2 bng 15 250 50 0 empty empty empty 17 7 0 10 -262144 -1
-1;
#X obj 240 36 openpanel;
#X msg 254 91 read -resize \$1 channelL channelR;
#X obj 262 147 soundfiler;
#X floatatom 278 179 12 0 0 0 - - -;
#X obj 284 248 expr 44100 / $f1;
#X obj 377 218 s sampleSize;
#X floatatom 197 168 5 0 0 0 - - -;
#X obj 74 543 phasor~;
#X obj 74 609 *~;
#X obj 121 577 r sampleSize;
#X obj 56 654 tabread4~ channelL;
#X obj 35 22 \; pd dsp \$1;
#X obj 108 722 tabread4~ channelR;
#X obj 490 293 metro 50;
#X obj 489 340 snapshot~;
#X floatatom 489 375 12 0 0 0 - - -;
#X obj 494 470 /;
#X obj 511 412 r sampleSize;
#X floatatom 492 512 5 0 0 0 - - -;
#X obj 491 262 tgl 15 0 empty empty empty 17 7 0 10 -262144 -1 -1 0
1;
#X obj 489 620 hsl 195 15 0 1 0 0 empty empty empty -2 -8 0 10 -262144
-1 -1 0 1;
#X obj 54 279 hsl 195 15 -1 1 0 0 empty empty empty -2 -8 0 10 -262144
-1 -1 0 1;
#X floatatom 75 482 5 0 0 0 - - -;
#X msg 121 388 0;
#X msg 24 489 0;
#X obj 122 331 t b b;
#X obj 160 90 bng 15 250 50 0 empty empty empty 17 7 0 10 -262144 -1
-1;
#X obj 551 459 moses 0.4;
#X floatatom 541 511 5 0 0 0 - - -;
#X floatatom 617 499 5 0 0 0 - - -;
#X obj 616 544 s retrig;
#X obj 179 420 r retrig;
#X obj 614 261 hsl 195 15 -1 1 0 0 empty empty empty -2 -8 0 10 -262144
-1 -1 0 1;
#X floatatom 611 302 5 0 0 0 - - -;
#X obj 612 342 s startBufferValue;
#X obj 209 464 r startBufferValue;
#X floatatom 177 499 5 0 0 0 - - -;
#X obj 179 455 bng 15 250 50 0 empty empty empty 17 7 0 10 -262144
-1 -1;
#X obj 615 383 hsl 195 15 -1 1 0 0 empty empty empty -2 -8 0 10 -262144
-1 -1 0 1;
#X floatatom 620 432 5 0 0 0 - - -;
#X text 173 301 Speed;
#X obj 4 9;
#N canvas 0 23 1886 980 analyzer 0;
#X obj 18 99 bonk~;
#X obj 91 99 tgl 15 0 empty empty empty 0 -6 0 8 -262144 -1 -1 0 1
;
#X obj 168 219 print cooked;
#X obj 132 132 s bonk-cooked;
#X msg 18 20 thresh 2.5 50;
#X obj 55 244 unpack f f f;
#X obj 145 23 inlet~;
#X floatatom 96 326 5 0 0 0 - - -;
#X floatatom 364 415 5 0 0 0 - - -;
#X obj 276 67 inlet;
#X floatatom 310 142 5 0 0 0 - - -;
#X obj 125 473 bng 15 250 50 0 empty empty empty 17 7 0 10 -262144
-1 -1;
#X obj 178 494 float;
#X obj 249 499 +;
#X msg 319 417;
#X floatatom 276 461 5 0 0 0 - - -;
#X floatatom 185 550 5 0 0 0 - - -;
#X obj 407 342 f;
#X obj 472 337 + 1;
#X floatatom 406 383 5 0 0 0 - - -;
#X obj 392 62 inlet;
#X floatatom 399 163 5 0 0 0 - - -;
#X obj 81 383 > 80;
#X obj 397 121 bng 15 250 50 0 empty empty empty 17 7 0 10 -262144
-1 -1;
#X floatatom 135 356 5 0 0 0 - - -;
#X floatatom 16 422 5 0 0 0 - - -;
#X floatatom 195 406 5 0 0 0 - - -;
#X obj 200 364 bng 15 250 50 0 empty empty empty 17 7 0 10 -262144
-1 -1;
#X obj 331 203 s currentTime;
#X obj 65 630 r currentTime;
#X floatatom 123 699 5 0 0 0 - - -;
#X obj 542 399 tgl 15 0 empty empty empty 17 7 0 10 -262144 -1 -1 0
1;
#X obj 546 458 metro 500;
#X obj 543 555 float;
#X obj 615 553 +;
#X floatatom 636 517 5 0 0 0 - - -;
#X floatatom 475 454 5 0 0 0 - - -;
#X floatatom 572 500 5 0 0 0 - - -;
#X obj 543 514 bng 15 250 50 0 empty empty empty 17 7 0 10 -262144
-1 -1;
#X floatatom 542 661 5 0 0 0 - - -;
#X floatatom 543 583 5 0 10 0 - - -;
#X obj 473 407 bng 15 250 50 0 empty empty empty 17 7 0 10 -262144
-1 -1;
#X text 920 335 Clear Array;
#X obj 982 406 tgl 15 0 empty empty empty 17 7 0 10 -262144 -1 -1 0
1;
#X obj 981 517 float;
#X obj 1053 515 +;
#X floatatom 1074 479 5 0 0 0 - - -;
#X floatatom 913 416 5 0 0 0 - - -;
#X floatatom 1010 462 5 0 0 0 - - -;
#X obj 981 476 bng 15 250 50 0 empty empty empty 17 7 0 10 -262144
-1 -1;
#X floatatom 981 545 5 0 10 0 - - -;
#X obj 911 369 bng 15 250 50 0 empty empty empty 17 7 0 10 -262144
-1 -1;
#X floatatom 929 679 5 0 0 0 - - -;
#X obj 985 631 bng 15 250 50 0 empty empty empty 17 7 0 10 -262144
-1 -1;
#X obj 982 436 metro 100;
#X obj 495 719 outlet;
#X obj 732 55 inlet;
#X obj 731 106 s chooseSlicedIndex;
#X obj 371 524 r chooseSlicedIndex;
#X obj 749 543 -;
#X obj 709 715 float;
#X obj 781 713 +;
#X floatatom 805 676 5 0 0 0 - - -;
#X floatatom 738 660 5 0 0 0 - - -;
#X obj 709 674 bng 15 250 50 0 empty empty empty 17 7 0 10 -262144
-1 -1;
#X floatatom 710 744 5 0 10 0 - - -;
#X obj 710 774 outlet;
#X obj 502 37 table onsetsTable;
#X obj 74 155 spigot;
#X obj 153 826 tabwrite onsetsTable;
#X obj 925 713 tabwrite onsetsTable;
#X obj 543 619 tabread onsetsTable;
#X floatatom 178 677 5 0 0 0 - - -;
#X msg 47 697;
#X floatatom 770 203 5 0 0 0 - - -;
#X obj 851 567 moses 20;
#X obj 975 364 bng 15 250 50 0 empty empty empty 17 7 0 10 -262144
-1 -1;
#N canvas 1168 184 661 462 counter 0;
#X obj 302 163 tgl 15 0 empty empty empty 17 7 0 10 -262144 -1 -1 0
1;
#X obj 301 274 float;
#X obj 373 272 +;
#X floatatom 394 236 5 0 0 0 - - -;
#X floatatom 233 173 5 0 0 0 - - -;
#X obj 301 233 bng 15 250 50 0 empty empty empty 17 7 0 10 -262144
-1 -1;
#X floatatom 301 302 5 0 10 0 - - -;
#X obj 231 126 bng 15 250 50 0 empty empty empty 17 7 0 10 -262144
-1 -1;
#X obj 302 193 metro 100;
#X obj 144 330 moses 20;
#X obj 295 121 bng 15 250 50 0 empty empty empty 17 7 0 10 -262144
-1 -1;
#X obj 261 51 inlet;
#X obj 445 47 inlet;
#X obj 300 383 outlet;
#X connect 0 0 8 0;
#X connect 1 0 2 0;
#X connect 1 0 6 0;
#X connect 2 0 1 1;
#X connect 3 0 2 1;
#X connect 4 0 1 0;
#X connect 4 0 13 0;
#X connect 5 0 1 0;
#X connect 6 0 9 0;
#X connect 6 0 13 0;
#X connect 7 0 4 0;
#X connect 8 0 5 0;
#X connect 9 1 7 0;
#X connect 10 0 0 0;
#X connect 11 0 10 0;
#X connect 12 0 8 1;
#X restore 1309 376 pd counter;
#X floatatom 1312 480 5 0 0 0 - - -;
#X obj 1307 303 bng 15 250 50 0 empty empty empty 17 7 0 10 -262144
-1 -1;
#X floatatom 1389 278 5 0 0 0 - - -;
#X connect 0 1 3 0;
#X connect 0 1 68 0;
#X connect 1 0 68 1;
#X connect 4 0 0 0;
#X connect 5 1 7 0;
#X connect 5 2 8 0;
#X connect 6 0 0 0;
#X connect 7 0 22 0;
#X connect 9 0 10 0;
#X connect 10 0 28 0;
#X connect 10 0 69 0;
#X connect 11 0 12 0;
#X connect 11 0 17 0;
#X connect 12 0 13 0;
#X connect 12 0 16 0;
#X connect 13 0 12 1;
#X connect 14 0 15 0;
#X connect 15 0 13 1;
#X connect 16 0 69 1;
#X connect 17 0 18 0;
#X connect 17 0 19 0;
#X connect 18 0 17 1;
#X connect 20 0 23 0;
#X connect 21 0 17 0;
#X connect 22 0 25 0;
#X connect 22 0 11 0;
#X connect 22 0 15 0;
#X connect 23 0 21 0;
#X connect 24 0 22 1;
#X connect 26 0 12 0;
#X connect 27 0 26 0;
#X connect 29 0 30 0;
#X connect 29 0 72 0;
#X connect 29 0 73 0;
#X connect 31 0 32 0;
#X connect 32 0 38 0;
#X connect 33 0 34 0;
#X connect 33 0 40 0;
#X connect 34 0 33 1;
#X connect 35 0 34 1;
#X connect 36 0 33 0;
#X connect 37 0 33 0;
#X connect 38 0 33 0;
#X connect 39 0 55 0;
#X connect 39 0 60 0;
#X connect 39 0 64 0;
#X connect 40 0 71 0;
#X connect 41 0 36 0;
#X connect 43 0 54 0;
#X connect 44 0 45 0;
#X connect 44 0 50 0;
#X connect 45 0 44 1;
#X connect 46 0 45 1;
#X connect 47 0 44 0;
#X connect 48 0 44 0;
#X connect 49 0 44 0;
#X connect 50 0 53 0;
#X connect 50 0 70 1;
#X connect 50 0 75 0;
#X connect 51 0 47 0;
#X connect 52 0 70 0;
#X connect 53 0 52 0;
#X connect 54 0 49 0;
#X connect 56 0 57 0;
#X connect 58 0 40 0;
#X connect 60 0 65 0;
#X connect 60 0 61 0;
#X connect 61 0 60 1;
#X connect 62 0 61 1;
#X connect 63 0 60 0;
#X connect 64 0 60 0;
#X connect 65 0 66 0;
#X connect 68 0 5 0;
#X connect 68 0 2 0;
#X connect 71 0 39 0;
#X connect 74 0 40 0;
#X connect 75 1 51 0;
#X connect 75 1 76 0;
#X connect 76 0 43 0;
#X connect 77 0 78 0;
#X connect 79 0 77 0;
#X connect 80 0 77 1;
#X restore 164 901 pd analyzer;
#N canvas 0 23 674 575 serialcom 0;
#X msg 218 99 devicename /dev/cu.usbmodem1413401;
#X msg 334 22 devices;
#X obj 125 207 comport 2 9600 /dev/cu.usbmodem1413401;
#X floatatom 101 304 5 0 0 0 - - -;
#X floatatom 227 245 5 0 0 0 - - -;
#X msg 120 128 open 2;
#X floatatom 156 336 5 0 0 0 - - -;
#X obj 136 372 ==;
#X floatatom 136 406 5 0 0 0 - - -;
#X obj 135 439 spigot;
#X floatatom 135 490 5 0 0 0 - - -;
#X obj 135 465 bng 15 250 50 0 empty empty empty 17 7 0 10 -262144
-1 -1;
#X obj 155 301 bng 15 250 50 0 empty empty empty 17 7 0 10 -262144
-1 -1;
#X floatatom 234 338 5 0 0 0 - - -;
#X obj 214 374 ==;
#X floatatom 214 408 5 0 0 0 - - -;
#X obj 213 441 spigot;
#X floatatom 213 492 5 0 0 0 - - -;
#X obj 213 467 bng 15 250 50 0 empty empty empty 17 7 0 10 -262144
-1 -1;
#X obj 233 303 bng 15 250 50 0 empty empty empty 17 7 0 10 -262144
-1 -1;
#X floatatom 311 336 5 0 0 0 - - -;
#X obj 291 372 ==;
#X floatatom 291 406 5 0 0 0 - - -;
#X obj 290 439 spigot;
#X floatatom 290 490 5 0 0 0 - - -;
#X obj 290 465 bng 15 250 50 0 empty empty empty 17 7 0 10 -262144
-1 -1;
#X obj 310 301 bng 15 250 50 0 empty empty empty 17 7 0 10 -262144
-1 -1;
#X floatatom 407 329 5 0 0 0 - - -;
#X obj 387 365 ==;
#X floatatom 387 399 5 0 0 0 - - -;
#X obj 386 432 spigot;
#X floatatom 386 483 5 0 0 0 - - -;
#X obj 386 458 bng 15 250 50 0 empty empty empty 17 7 0 10 -262144
-1 -1;
#X obj 406 294 bng 15 250 50 0 empty empty empty 17 7 0 10 -262144
-1 -1;
#X floatatom 485 331 5 0 0 0 - - -;
#X obj 465 367 ==;
#X floatatom 465 401 5 0 0 0 - - -;
#X obj 464 434 spigot;
#X floatatom 464 485 5 0 0 0 - - -;
#X obj 464 460 bng 15 250 50 0 empty empty empty 17 7 0 10 -262144
-1 -1;
#X obj 484 296 bng 15 250 50 0 empty empty empty 17 7 0 10 -262144
-1 -1;
#X floatatom 562 329 5 0 0 0 - - -;
#X obj 542 365 ==;
#X floatatom 542 399 5 0 0 0 - - -;
#X obj 541 432 spigot;
#X floatatom 541 483 5 0 0 0 - - -;
#X obj 541 458 bng 15 250 50 0 empty empty empty 17 7 0 10 -262144
-1 -1;
#X obj 561 294 bng 15 250 50 0 empty empty empty 17 7 0 10 -262144
-1 -1;
#X connect 0 0 2 0;
#X connect 1 0 2 0;
#X connect 2 0 3 0;
#X connect 2 0 4 0;
#X connect 2 0 12 0;
#X connect 2 0 19 0;
#X connect 2 0 26 0;
#X connect 4 0 7 0;
#X connect 4 0 14 0;
#X connect 4 0 21 0;
#X connect 4 0 33 0;
#X connect 4 0 40 0;
#X connect 4 0 47 0;
#X connect 4 0 28 0;
#X connect 4 0 35 0;
#X connect 5 0 2 0;
#X connect 6 0 7 1;
#X connect 7 0 8 0;
#X connect 8 0 9 1;
#X connect 8 0 9 0;
#X connect 9 0 11 0;
#X connect 11 0 10 0;
#X connect 12 0 6 0;
#X connect 13 0 14 1;
#X connect 14 0 15 0;
#X connect 15 0 16 1;
#X connect 15 0 16 0;
#X connect 16 0 18 0;
#X connect 18 0 17 0;
#X connect 19 0 13 0;
#X connect 20 0 21 1;
#X connect 21 0 22 0;
#X connect 22 0 23 1;
#X connect 22 0 23 0;
#X connect 23 0 25 0;
#X connect 25 0 24 0;
#X connect 26 0 20 0;
#X connect 27 0 28 1;
#X connect 28 0 29 0;
#X connect 29 0 30 1;
#X connect 29 0 30 0;
#X connect 30 0 32 0;
#X connect 32 0 31 0;
#X connect 33 0 27 0;
#X connect 34 0 35 1;
#X connect 35 0 36 0;
#X connect 36 0 37 1;
#X connect 36 0 37 0;
#X connect 37 0 39 0;
#X connect 39 0 38 0;
#X connect 40 0 34 0;
#X connect 41 0 42 1;
#X connect 42 0 43 0;
#X connect 43 0 44 1;
#X connect 43 0 44 0;
#X connect 44 0 46 0;
#X connect 46 0 45 0;
#X connect 47 0 41 0;
#X restore 795 105 pd serialcom;
#X text 892 105 Recieve Messages From User Input;
#X obj 659 696 t b f;
#X floatatom 703 662 5 0 0 0 - - -;
#X msg 787 693 0.999;
#X obj 601 882 tgl 15 0 empty empty empty 17 7 0 10 -262144 -1 -1 0
1;
#X obj 641 831 spigot;
#X obj 590 738 > 0.933;
#X floatatom 664 771 5 0 0 0 - - -;
#X obj 667 884 bng 15 250 50 0 empty empty empty 17 7 0 10 -262144
-1 -1;
#X obj 540 181 bng 15 250 50 0 empty empty empty 17 7 0 10 -262144
-1 -1;
#X text 568 181 Start Analysis;
#X msg 580 226 0;
#X obj 701 919 s stopPlayback;
#X obj 111 208 r stopPlayback;
#X msg 85 231 0;
#X obj 686 227 s startPlayback;
#X obj 29 128 r startPlayback;
#X msg 715 870 0;
#X floatatom 161 931 5 0 0 0 - - -;
#X floatatom 276 839 5 0 0 0 - - -;
#X obj 161 955 s sliceStart;
#X obj 679 283 r sliceStart;
#X floatatom 269 927 5 0 0 0 - - -;
#X obj 271 956 s sliceEnd;
#X obj 740 467 r sliceEnd;
#X obj 476 164 spigot;
#X obj 526 125 tgl 15 0 empty empty empty 17 7 0 10 -262144 -1 -1 0
1;
#X obj 454 33 r stopPlayback;
#X obj 501 135 bng 15 250 50 0 empty empty empty 17 7 0 10 -262144
-1 -1;
#X text 581 75 Loop Original Sample;
#X floatatom 175 868 5 0 0 0 - - -;
#X floatatom 81 796 5 0 0 0 - - -;
#X msg 31 187 0.181;
#X obj 135 51 inlet;
#N canvas 1168 184 661 462 counter 0;
#X obj 302 163 tgl 15 0 empty empty empty 17 7 0 10 -262144 -1 -1 0
1;
#X obj 301 274 float;
#X obj 373 272 +;
#X floatatom 394 236 5 0 0 0 - - -;
#X floatatom 233 173 5 0 0 0 - - -;
#X obj 301 233 bng 15 250 50 0 empty empty empty 17 7 0 10 -262144
-1 -1;
#X floatatom 301 302 5 0 10 0 - - -;
#X obj 231 126 bng 15 250 50 0 empty empty empty 17 7 0 10 -262144
-1 -1;
#X obj 302 193 metro 100;
#X obj 295 121 bng 15 250 50 0 empty empty empty 17 7 0 10 -262144
-1 -1;
#X obj 261 51 inlet;
#X obj 445 47 inlet;
#X obj 300 383 outlet;
#X obj 144 330 moses 15;
#X connect 0 0 8 0;
#X connect 1 0 2 0;
#X connect 1 0 6 0;
#X connect 2 0 1 1;
#X connect 3 0 2 1;
#X connect 4 0 1 0;
#X connect 4 0 12 0;
#X connect 5 0 1 0;
#X connect 6 0 12 0;
#X connect 6 0 13 0;
#X connect 7 0 4 0;
#X connect 8 0 5 0;
#X connect 9 0 0 0;
#X connect 10 0 9 0;
#X connect 11 0 8 1;
#X connect 13 1 7 0;
#X restore 315 666 pd counter;
#X floatatom 318 770 5 0 0 0 - - -;
#X obj 313 593 bng 15 250 50 0 empty empty empty 17 7 0 10 -262144
-1 -1;
#X floatatom 395 568 5 0 0 0 - - -;
#X obj 404 812 random;
#X obj 427 693 tgl 15 0 empty empty empty 17 7 0 10 -262144 -1 -1 0
1;
#X floatatom 461 777 5 0 0 0 - - -;
#X floatatom 398 865 5 0 0 0 - - -;
#X obj 409 736 metro 500;
#X obj 927 338 adc~;
#X obj 1239 640 writesf~ 2;
#X msg 1227 427 open recordedSample.wav;
#X msg 1153 612 start;
#X msg 1253 595 stop;
#X connect 2 0 1 0;
#X connect 2 0 50 0;
#X connect 3 0 1 1;
#X connect 4 0 2 1;
#X connect 4 0 3 1;
#X connect 4 0 82 0;
#X connect 7 0 8 0;
#X connect 8 0 9 0;
#X connect 9 0 10 0;
#X connect 10 0 11 0;
#X connect 11 0 12 0;
#X connect 11 0 13 0;
#X connect 12 0 14 0;
#X connect 12 0 15 0;
#X connect 14 0 84 0;
#X connect 15 0 16 0;
#X connect 16 0 18 0;
#X connect 16 0 20 0;
#X connect 16 0 22 0;
#X connect 17 0 16 1;
#X connect 18 0 2 0;
#X connect 20 0 3 0;
#X connect 21 0 22 0;
#X connect 22 0 23 0;
#X connect 23 0 24 0;
#X connect 24 0 26 0;
#X connect 25 0 24 1;
#X connect 26 0 28 0;
#X connect 26 0 35 0;
#X connect 26 0 50 1;
#X connect 26 0 58 0;
#X connect 27 0 21 0;
#X connect 29 0 30 0;
#X connect 30 0 15 0;
#X connect 31 0 15 1;
#X connect 32 0 15 0;
#X connect 33 0 31 0;
#X connect 33 1 32 0;
#X connect 34 0 33 0;
#X connect 35 0 36 0;
#X connect 35 1 37 0;
#X connect 37 0 38 0;
#X connect 39 0 45 0;
#X connect 40 0 41 0;
#X connect 41 0 42 0;
#X connect 43 0 44 0;
#X connect 44 0 15 1;
#X connect 45 0 44 0;
#X connect 46 0 47 0;
#X connect 47 0 35 1;
#X connect 50 0 70 0;
#X connect 50 1 74 0;
#X connect 53 1 58 1;
#X connect 54 0 53 0;
#X connect 54 0 58 1;
#X connect 55 0 53 0;
#X connect 55 0 58 1;
#X connect 57 0 60 0;
#X connect 58 0 59 0;
#X connect 58 0 56 0;
#X connect 58 0 57 0;
#X connect 59 0 57 1;
#X connect 60 0 64 0;
#X connect 60 0 69 0;
#X connect 60 0 50 2;
#X connect 61 0 63 0;
#X connect 61 0 27 0;
#X connect 61 0 67 0;
#X connect 63 0 42 0;
#X connect 65 0 66 0;
#X connect 66 0 29 0;
#X connect 68 0 84 0;
#X connect 69 0 59 0;
#X connect 70 0 72 0;
#X connect 71 0 50 3;
#X connect 73 0 41 0;
#X connect 74 0 75 0;
#X connect 76 0 37 0;
#X connect 76 0 47 0;
#X connect 78 0 77 1;
#X connect 79 0 77 0;
#X connect 80 0 77 0;
#X connect 83 0 2 1;
#X connect 83 0 3 1;
#X connect 84 0 29 0;
#X connect 86 0 87 0;
#X connect 86 0 50 3;
#X connect 88 0 86 0;
#X connect 89 0 86 1;
#X connect 90 0 93 0;
#X connect 91 0 94 0;
#X connect 92 0 90 1;
#X connect 93 0 50 3;
#X connect 94 0 90 0;
#X connect 95 0 96 0;
#X connect 95 1 96 1;
#X connect 97 0 96 0;
#X connect 98 0 96 0;
#X connect 99 0 96 0;
