#N canvas 0 23 1920 980 12;
#N canvas 0 23 674 575 serialcom 0;
#X msg 218 99 devicename /dev/cu.usbmodem1413401;
#X msg 334 22 devices;
#X obj 125 207 comport 2 9600 /dev/cu.usbmodem1413401;
#X floatatom 101 304 5 0 0 0 - - -;
#X floatatom 227 245 5 0 0 0 - - -;
#X msg 120 128 open 2;
#X floatatom 156 336 5 0 0 0 - - -;
#X obj 136 372 ==;
#X floatatom 136 406 5 0 0 0 - - -;
#X obj 135 439 spigot;
#X floatatom 135 490 5 0 0 0 - - -;
#X obj 135 465 bng 15 250 50 0 empty empty empty 17 7 0 10 -262144
-1 -1;
#X obj 155 301 bng 15 250 50 0 empty empty empty 17 7 0 10 -262144
-1 -1;
#X floatatom 234 338 5 0 0 0 - - -;
#X obj 214 374 ==;
#X floatatom 214 408 5 0 0 0 - - -;
#X obj 213 441 spigot;
#X floatatom 213 492 5 0 0 0 - - -;
#X obj 213 467 bng 15 250 50 0 empty empty empty 17 7 0 10 -262144
-1 -1;
#X obj 233 303 bng 15 250 50 0 empty empty empty 17 7 0 10 -262144
-1 -1;
#X floatatom 311 336 5 0 0 0 - - -;
#X obj 291 372 ==;
#X floatatom 291 406 5 0 0 0 - - -;
#X obj 290 439 spigot;
#X floatatom 290 490 5 0 0 0 - - -;
#X obj 290 465 bng 15 250 50 0 empty empty empty 17 7 0 10 -262144
-1 -1;
#X obj 310 301 bng 15 250 50 0 empty empty empty 17 7 0 10 -262144
-1 -1;
#X floatatom 407 329 5 0 0 0 - - -;
#X obj 387 365 ==;
#X floatatom 387 399 5 0 0 0 - - -;
#X obj 386 432 spigot;
#X floatatom 386 483 5 0 0 0 - - -;
#X obj 386 458 bng 15 250 50 0 empty empty empty 17 7 0 10 -262144
-1 -1;
#X obj 406 294 bng 15 250 50 0 empty empty empty 17 7 0 10 -262144
-1 -1;
#X floatatom 485 331 5 0 0 0 - - -;
#X obj 465 367 ==;
#X floatatom 465 401 5 0 0 0 - - -;
#X obj 464 434 spigot;
#X floatatom 464 485 5 0 0 0 - - -;
#X obj 464 460 bng 15 250 50 0 empty empty empty 17 7 0 10 -262144
-1 -1;
#X obj 484 296 bng 15 250 50 0 empty empty empty 17 7 0 10 -262144
-1 -1;
#X floatatom 562 329 5 0 0 0 - - -;
#X obj 542 365 ==;
#X floatatom 542 399 5 0 0 0 - - -;
#X obj 541 432 spigot;
#X floatatom 541 483 5 0 0 0 - - -;
#X obj 541 458 bng 15 250 50 0 empty empty empty 17 7 0 10 -262144
-1 -1;
#X obj 561 294 bng 15 250 50 0 empty empty empty 17 7 0 10 -262144
-1 -1;
#X connect 0 0 2 0;
#X connect 1 0 2 0;
#X connect 2 0 3 0;
#X connect 2 0 4 0;
#X connect 2 0 12 0;
#X connect 2 0 19 0;
#X connect 2 0 26 0;
#X connect 4 0 7 0;
#X connect 4 0 14 0;
#X connect 4 0 21 0;
#X connect 4 0 33 0;
#X connect 4 0 40 0;
#X connect 4 0 47 0;
#X connect 4 0 28 0;
#X connect 4 0 35 0;
#X connect 5 0 2 0;
#X connect 6 0 7 1;
#X connect 7 0 8 0;
#X connect 8 0 9 1;
#X connect 8 0 9 0;
#X connect 9 0 11 0;
#X connect 11 0 10 0;
#X connect 12 0 6 0;
#X connect 13 0 14 1;
#X connect 14 0 15 0;
#X connect 15 0 16 1;
#X connect 15 0 16 0;
#X connect 16 0 18 0;
#X connect 18 0 17 0;
#X connect 19 0 13 0;
#X connect 20 0 21 1;
#X connect 21 0 22 0;
#X connect 22 0 23 1;
#X connect 22 0 23 0;
#X connect 23 0 25 0;
#X connect 25 0 24 0;
#X connect 26 0 20 0;
#X connect 27 0 28 1;
#X connect 28 0 29 0;
#X connect 29 0 30 1;
#X connect 29 0 30 0;
#X connect 30 0 32 0;
#X connect 32 0 31 0;
#X connect 33 0 27 0;
#X connect 34 0 35 1;
#X connect 35 0 36 0;
#X connect 36 0 37 1;
#X connect 36 0 37 0;
#X connect 37 0 39 0;
#X connect 39 0 38 0;
#X connect 40 0 34 0;
#X connect 41 0 42 1;
#X connect 42 0 43 0;
#X connect 43 0 44 1;
#X connect 43 0 44 0;
#X connect 44 0 46 0;
#X connect 46 0 45 0;
#X connect 47 0 41 0;
#X restore 1337 465 pd serialcom;
#X text 1434 466 Recieve Messages From User Input;
#X obj 950 28 loadbang;
#X msg 951 58 \; volume 3 \; lowpass 2000 \; delayInit 0 \;;
#X obj 1129 81 netreceive 3003;
#X floatatom 1029 181 5 0 0 0 - - -;
#X floatatom 1081 178 5 0 0 0 - - -;
#X floatatom 986 182 5 0 0 0 - - -;
#X floatatom 1324 187 5 0 0 0 - - -;
#X floatatom 1396 185 5 0 0 0 - - -;
#X floatatom 1259 188 5 0 0 0 - - -;
#X floatatom 1083 312 5 0 0 0 - - -;
#X floatatom 1142 313 5 0 0 0 - - -;
#X floatatom 1025 309 5 0 0 0 - - -;
#X obj 1090 123 route 0 1 2 3 4 5 6 7 8 9 10 11;
#X floatatom 1325 348 5 0 0 0 - - -;
#X floatatom 1412 349 5 0 0 0 - - -;
#X floatatom 1248 351 5 0 0 0 - - -;
#X text 1396 377 Slice 4 Delay Val;
#X text 1286 377 Slice 4 LPF Val;
#X text 1190 370 Slice 4 Z Val;
#X text 1115 338 Slice 3 Delay Val;
#X text 1044 341 Slice 3 LPF Val;
#X text 948 352 Slice3 1 Z Val;
#X text 1196 189 Slice 2 Z Val;
#X text 1325 209 Slice 2 LPO Val;
#X text 1392 211 Slice 2 Delay Val;
#X text 1073 194 Slice 1 Delay Val;
#X text 1020 208 Slice 1 LPO Val;
#X text 956 205 Slice 1 Z Val;
#X obj 528 188 hsl 195 15 0 1 0 0 empty empty empty -2 -8 0 10 -262144
-1 -1 6127 1;
#X text 560 163 Playhead;
#X obj 273 47 bng 15 250 50 0 empty empty empty 17 7 0 10 -262144 -1
-1;
#X obj 423 37 bng 15 250 50 0 empty empty empty 17 7 0 10 -262144 -1
-1;
#X text 376 64 Record Voice;
#X text 287 67 Load File;
#X obj 176 692 dac~ 1 2;
#X obj 58 654 *~;
#X obj 381 652 *~;
#X obj 199 587 vsl 15 50 0 10 0 0 empty empty empty 0 -9 0 10 -262144
-1 -1 0 1;
#N canvas 0 23 1886 980 analyzer 1;
#X obj 18 99 bonk~;
#X obj 91 99 tgl 15 0 empty empty empty 0 -6 0 8 -262144 -1 -1 0 1
;
#X obj 168 219 print cooked;
#X obj 132 132 s bonk-cooked;
#X msg 18 20 thresh 2.5 50;
#X obj 55 244 unpack f f f;
#X obj 145 23 inlet~;
#X floatatom 96 326 5 0 0 0 - - -;
#X floatatom 364 415 5 0 0 0 - - -;
#X obj 276 67 inlet;
#X floatatom 310 142 5 0 0 0 - - -;
#X obj 125 473 bng 15 250 50 0 empty empty empty 17 7 0 10 -262144
-1 -1;
#X obj 178 494 float;
#X obj 249 499 +;
#X msg 319 417;
#X floatatom 276 461 5 0 0 0 - - -;
#X floatatom 185 550 5 0 0 0 - - -;
#X obj 81 383 > 80;
#X floatatom 135 356 5 0 0 0 - - -;
#X floatatom 16 422 5 0 0 0 - - -;
#X floatatom 195 406 5 0 0 0 - - -;
#X obj 200 364 bng 15 250 50 0 empty empty empty 17 7 0 10 -262144
-1 -1;
#X obj 331 203 s currentTime;
#X obj 65 630 r currentTime;
#X floatatom 123 699 5 0 0 0 - - -;
#X obj 542 399 tgl 15 0 empty empty empty 17 7 0 10 -262144 -1 -1 0
1;
#X obj 546 458 metro 500;
#X obj 543 555 float;
#X obj 615 553 +;
#X floatatom 636 517 5 0 0 0 - - -;
#X floatatom 475 454 5 0 0 0 - - -;
#X floatatom 572 500 5 0 0 0 - - -;
#X obj 543 514 bng 15 250 50 0 empty empty empty 17 7 0 10 -262144
-1 -1;
#X floatatom 542 661 5 0 0 0 - - -;
#X floatatom 543 583 5 0 10 0 - - -;
#X obj 473 407 bng 15 250 50 0 empty empty empty 17 7 0 10 -262144
-1 -1;
#X text 920 335 Clear Array;
#X obj 982 406 tgl 15 0 empty empty empty 17 7 0 10 -262144 -1 -1 0
1;
#X obj 981 517 float;
#X obj 1053 515 +;
#X floatatom 1074 479 5 0 0 0 - - -;
#X floatatom 913 416 5 0 0 0 - - -;
#X floatatom 1010 462 5 0 0 0 - - -;
#X obj 981 476 bng 15 250 50 0 empty empty empty 17 7 0 10 -262144
-1 -1;
#X floatatom 981 545 5 0 10 0 - - -;
#X obj 911 369 bng 15 250 50 0 empty empty empty 17 7 0 10 -262144
-1 -1;
#X floatatom 929 679 5 0 0 0 - - -;
#X obj 985 631 bng 15 250 50 0 empty empty empty 17 7 0 10 -262144
-1 -1;
#X obj 982 436 metro 100;
#X obj 495 719 outlet;
#X obj 732 55 inlet;
#X obj 731 106 s chooseSlicedIndex;
#X obj 371 524 r chooseSlicedIndex;
#X obj 749 543 -;
#X obj 709 715 float;
#X obj 781 713 +;
#X floatatom 805 676 5 0 0 0 - - -;
#X floatatom 738 660 5 0 0 0 - - -;
#X obj 709 674 bng 15 250 50 0 empty empty empty 17 7 0 10 -262144
-1 -1;
#X floatatom 710 744 5 0 10 0 - - -;
#X obj 710 774 outlet;
#X obj 502 37 table onsetsTable;
#X obj 74 155 spigot;
#X obj 153 826 tabwrite onsetsTable;
#X obj 925 713 tabwrite onsetsTable;
#X obj 543 619 tabread onsetsTable;
#X floatatom 178 677 5 0 0 0 - - -;
#X msg 47 697;
#X floatatom 770 203 5 0 0 0 - - -;
#X obj 851 567 moses 20;
#X obj 975 364 bng 15 250 50 0 empty empty empty 17 7 0 10 -262144
-1 -1;
#N canvas 1168 184 661 462 counter 0;
#X obj 302 163 tgl 15 0 empty empty empty 17 7 0 10 -262144 -1 -1 0
1;
#X obj 301 274 float;
#X obj 373 272 +;
#X floatatom 394 236 5 0 0 0 - - -;
#X floatatom 233 173 5 0 0 0 - - -;
#X obj 301 233 bng 15 250 50 0 empty empty empty 17 7 0 10 -262144
-1 -1;
#X floatatom 301 302 5 0 10 0 - - -;
#X obj 231 126 bng 15 250 50 0 empty empty empty 17 7 0 10 -262144
-1 -1;
#X obj 302 193 metro 100;
#X obj 144 330 moses 20;
#X obj 295 121 bng 15 250 50 0 empty empty empty 17 7 0 10 -262144
-1 -1;
#X obj 261 51 inlet;
#X obj 445 47 inlet;
#X obj 300 383 outlet;
#X connect 0 0 8 0;
#X connect 1 0 2 0;
#X connect 1 0 6 0;
#X connect 2 0 1 1;
#X connect 3 0 2 1;
#X connect 4 0 1 0;
#X connect 4 0 13 0;
#X connect 5 0 1 0;
#X connect 6 0 9 0;
#X connect 6 0 13 0;
#X connect 7 0 4 0;
#X connect 8 0 5 0;
#X connect 9 1 7 0;
#X connect 10 0 0 0;
#X connect 11 0 10 0;
#X connect 12 0 8 1;
#X restore 1309 376 pd counter;
#X floatatom 1312 480 5 0 0 0 - - -;
#X obj 1307 303 bng 15 250 50 0 empty empty empty 17 7 0 10 -262144
-1 -1;
#X floatatom 1389 278 5 0 0 0 - - -;
#X obj 1148 571 cnv 15 100 60 empty empty empty 20 12 0 14 -233017
-66577 0;
#X text 797 653 + 0.15;
#X text 1073 452 +1;
#X obj 1006 42 loadbang;
#X obj 805 616 r increment;
#X obj 1127 430 r addIndex;
#X msg 1007 72 \; addIndex 1 \; increment 0.15 \;;
#X connect 0 1 3 0;
#X connect 0 1 62 0;
#X connect 1 0 62 1;
#X connect 4 0 0 0;
#X connect 5 1 7 0;
#X connect 5 2 8 0;
#X connect 6 0 0 0;
#X connect 7 0 17 0;
#X connect 9 0 10 0;
#X connect 10 0 22 0;
#X connect 10 0 63 0;
#X connect 11 0 12 0;
#X connect 12 0 13 0;
#X connect 12 0 16 0;
#X connect 13 0 12 1;
#X connect 14 0 15 0;
#X connect 15 0 13 1;
#X connect 16 0 63 1;
#X connect 17 0 19 0;
#X connect 17 0 11 0;
#X connect 17 0 15 0;
#X connect 18 0 17 1;
#X connect 20 0 12 0;
#X connect 21 0 20 0;
#X connect 23 0 24 0;
#X connect 23 0 66 0;
#X connect 23 0 67 0;
#X connect 25 0 26 0;
#X connect 26 0 32 0;
#X connect 27 0 28 0;
#X connect 27 0 34 0;
#X connect 28 0 27 1;
#X connect 29 0 28 1;
#X connect 30 0 27 0;
#X connect 31 0 27 0;
#X connect 32 0 27 0;
#X connect 33 0 49 0;
#X connect 33 0 54 0;
#X connect 33 0 58 0;
#X connect 34 0 65 0;
#X connect 35 0 30 0;
#X connect 37 0 48 0;
#X connect 38 0 39 0;
#X connect 38 0 44 0;
#X connect 39 0 38 1;
#X connect 40 0 39 1;
#X connect 41 0 38 0;
#X connect 42 0 38 0;
#X connect 43 0 38 0;
#X connect 44 0 47 0;
#X connect 44 0 64 1;
#X connect 44 0 69 0;
#X connect 45 0 41 0;
#X connect 46 0 64 0;
#X connect 47 0 46 0;
#X connect 48 0 43 0;
#X connect 50 0 51 0;
#X connect 52 0 34 0;
#X connect 54 0 59 0;
#X connect 54 0 55 0;
#X connect 55 0 54 1;
#X connect 56 0 55 1;
#X connect 57 0 54 0;
#X connect 58 0 54 0;
#X connect 59 0 60 0;
#X connect 62 0 5 0;
#X connect 62 0 2 0;
#X connect 65 0 33 0;
#X connect 68 0 34 0;
#X connect 69 1 45 0;
#X connect 69 1 70 0;
#X connect 70 0 37 0;
#X connect 71 0 72 0;
#X connect 73 0 71 0;
#X connect 74 0 71 1;
#X connect 78 0 81 0;
#X connect 79 0 56 0;
#X connect 80 0 40 0;
#X restore 164 854 pd analyzer;
#X floatatom 162 893 5 0 0 0 - - -;
#X floatatom 964 932 5 0 0 0 - - -;
#X obj 161 920 s sliceStart;
#X floatatom 269 890 5 0 0 0 - - -;
#X obj 271 918 s sliceEnd;
#X floatatom 196 653 5 0 0 0 - - -;
#N canvas 1168 184 661 462 counter 0;
#X obj 302 163 tgl 15 0 empty empty empty 17 7 0 10 -262144 -1 -1 0
1;
#X obj 301 274 float;
#X obj 373 272 +;
#X floatatom 394 236 5 0 0 0 - - -;
#X floatatom 233 173 5 0 0 0 - - -;
#X obj 301 233 bng 15 250 50 0 empty empty empty 17 7 0 10 -262144
-1 -1;
#X floatatom 301 302 5 0 10 0 - - -;
#X obj 231 126 bng 15 250 50 0 empty empty empty 17 7 0 10 -262144
-1 -1;
#X obj 302 193 metro 100;
#X obj 295 121 bng 15 250 50 0 empty empty empty 17 7 0 10 -262144
-1 -1;
#X obj 261 51 inlet;
#X obj 445 47 inlet;
#X obj 300 383 outlet;
#X obj 144 330 moses 15;
#X connect 0 0 8 0;
#X connect 1 0 2 0;
#X connect 1 0 6 0;
#X connect 2 0 1 1;
#X connect 3 0 2 1;
#X connect 4 0 1 0;
#X connect 4 0 12 0;
#X connect 5 0 1 0;
#X connect 6 0 12 0;
#X connect 6 0 13 0;
#X connect 7 0 4 0;
#X connect 8 0 5 0;
#X connect 9 0 0 0;
#X connect 10 0 9 0;
#X connect 11 0 8 1;
#X connect 13 1 7 0;
#X restore 982 856 pd counter;
#X floatatom 981 891 5 0 0 0 - - -;
#X obj 982 829 bng 15 250 50 0 empty empty empty 17 7 0 10 -262144
-1 -1;
#X floatatom 1049 829 5 0 0 0 - - -;
#X obj 1093 908 random;
#X obj 1093 830 tgl 15 0 empty empty empty 17 7 0 10 -262144 -1 -1
0 1;
#X floatatom 1131 880 5 0 0 0 - - -;
#X floatatom 1093 934 5 0 0 0 - - -;
#X obj 1093 856 metro 500;
#X msg 1153 828 300;
#X obj 199 507 r volume;
#X floatatom 200 550 5 0 0 0 - - -;
#X obj 195 279 lop~;
#X obj 353 276 lop~;
#X floatatom 226 248 5 0 0 0 - - -;
#X obj 245 213 r lowpass;
#X obj 186 352 delwrite~ delayLeft 4000;
#X obj 372 355 delwrite~ delayRight 4000;
#X obj 65 456 vd~ delayLeft;
#X obj 489 576 vd~ delayRight;
#X obj 492 524 sig~;
#X floatatom 492 491 5 0 0 0 - - -;
#X obj 67 409 sig~;
#X floatatom 66 349 5 0 0 0 - - -;
#X obj 64 305 r delayInit;
#X obj 491 451 r delayInit;
#X floatatom 387 251 5 0 0 0 - - -;
#X obj 385 214 r lowpass;
#N canvas 213 23 1648 979 playbackcontainer 1;
#X obj 289 48 bng 15 250 50 0 empty empty empty 17 7 0 10 -262144 -1
-1;
#X obj 287 72 openpanel;
#X msg 287 109 read -resize \$1 channelL channelR;
#X obj 288 141 soundfiler;
#X floatatom 288 185 12 0 0 0 - - -;
#X obj 286 218 expr 44100 / $f1;
#X obj 418 219 s sampleSize;
#X floatatom 217 266 5 0 0 0 - - -;
#X obj 285 394 phasor~;
#X obj 285 439 *~;
#X obj 345 420 r sampleSize;
#X obj 146 553 tabread4~ channelL;
#X obj 128 45 \; pd dsp \$1;
#X obj 345 546 tabread4~ channelR;
#X obj 634 304 metro 50;
#X obj 633 351 snapshot~;
#X floatatom 633 386 12 0 0 0 - - -;
#X obj 638 481 /;
#X obj 655 423 r sampleSize;
#X floatatom 636 523 5 0 0 0 - - -;
#X obj 635 273 tgl 15 0 empty empty empty 17 7 0 10 -262144 -1 -1 1
1;
#X obj 682 707 hsl 195 15 0 1 0 0 empty empty empty -2 -8 0 10 -262144
-1 -1 6127 1;
#X obj 105 412 hsl 100 15 -1 1 0 0 empty empty empty -2 -8 0 10 -262144
-1 -1 5946 1;
#X floatatom 167 446 5 0 0 0 - - -;
#X obj 649 551 moses 0.4;
#X floatatom 709 583 5 0 0 0 - - -;
#X obj 709 623 s retrig;
#X obj 385 262 r retrig;
#X obj 743 358 s startBufferValue;
#X obj 415 306 r startBufferValue;
#X floatatom 383 341 5 0 0 0 - - -;
#X obj 385 297 bng 15 250 50 0 empty empty empty 17 7 0 10 -262144
-1 -1;
#X text 185 389 Speed;
#X obj 97 32;
#X obj 572 840 spigot;
#X obj 572 766 > 0.933;
#X floatatom 607 805 5 0 0 0 - - -;
#X obj 572 880 bng 15 250 50 0 empty empty empty 17 7 0 10 -262144
-1 -1;
#X obj 684 192 bng 15 250 50 0 empty empty empty 17 7 0 10 -262144
-1 -1;
#X text 712 192 Start Analysis;
#X msg 724 237 0;
#X obj 572 922 s stopPlayback;
#X obj 170 305 r stopPlayback;
#X msg 149 376 0;
#X obj 830 253 s startPlayback;
#X obj 114 237 r startPlayback;
#X msg 620 879 0;
#X obj 736 550 r sliceEnd;
#X msg 115 303 0.181;
#X obj 540 45 bng 15 250 50 0 empty empty empty 17 7 0 10 -262144 -1
-1;
#X msg 540 108 read -resize ./recordedSample.wav channelL channelR
;
#X text 885 233 comment;
#X obj 367 495 s~ audioPlayback;
#X obj 755 304 r~ audioPlayback;
#X floatatom 618 738 5 0 0 0 - - -;
#X text 832 676 Playhead;
#X text 394 742 Stop Playback at end of sample;
#X obj 714 491 r endBufferValue;
#X obj 1066 757 tabplay~;
#X obj 893 578 hsl 195 15 -1 1 0 0 empty empty empty -2 -8 0 10 -262144
-1 -1 0 1;
#X floatatom 982 696 5 0 0 0 - - -;
#X obj 1211 545 hsl 195 15 -1 1 0 0 empty empty empty -2 -8 0 10 -262144
-1 -1 17600 1;
#X floatatom 1218 661 5 0 0 0 - - -;
#X obj 1521 779 spigot;
#X obj 1571 740 tgl 15 0 empty empty empty 17 7 0 10 -262144 -1 -1
0 1;
#X obj 1499 648 r stopPlayback;
#X obj 1546 750 bng 15 250 50 0 empty empty empty 17 7 0 10 -262144
-1 -1;
#X obj 988 420 adc~;
#X obj 976 516 writesf~ 2;
#X msg 978 386 open recordedSample.wav;
#X msg 987 470 start;
#X msg 1045 471 stop;
#X obj 982 723 s startBufferValue;
#X text 891 547 Set Slice Start;
#X obj 1218 692 s endBufferValue;
#X text 1215 517 Set Slice End;
#N canvas 0 22 450 278 (subpatch) 0;
#X array channelL 244800 float 2;
#X coords 0 1 244800 -1 200 140 1;
#X restore 1051 56 graph;
#N canvas 0 22 450 278 (subpatch) 0;
#X array channelR 244800 float 2;
#X coords 0 1 244800 -1 200 140 1 0 0;
#X restore 1295 60 graph;
#X obj 680 739 outlet;
#X obj 545 12 inlet;
#X obj 293 15 inlet;
#X obj 141 634 outlet~;
#X obj 352 640 outlet~;
#X obj 978 631 inlet;
#X obj 1235 603 inlet;
#X connect 0 0 1 0;
#X connect 1 0 2 0;
#X connect 2 0 3 0;
#X connect 3 0 4 0;
#X connect 4 0 5 0;
#X connect 4 0 6 0;
#X connect 5 0 7 0;
#X connect 5 0 8 0;
#X connect 7 0 48 0;
#X connect 8 0 9 0;
#X connect 9 0 11 0;
#X connect 9 0 13 0;
#X connect 9 0 52 0;
#X connect 10 0 9 1;
#X connect 11 0 81 0;
#X connect 13 0 82 0;
#X connect 14 0 15 0;
#X connect 15 0 16 0;
#X connect 16 0 17 0;
#X connect 17 0 19 0;
#X connect 18 0 17 1;
#X connect 19 0 21 0;
#X connect 19 0 24 0;
#X connect 19 0 35 0;
#X connect 20 0 14 0;
#X connect 21 0 78 0;
#X connect 22 0 23 0;
#X connect 23 0 8 0;
#X connect 24 1 25 0;
#X connect 25 0 26 0;
#X connect 27 0 31 0;
#X connect 29 0 30 0;
#X connect 30 0 8 1;
#X connect 31 0 30 0;
#X connect 34 0 37 0;
#X connect 35 0 36 0;
#X connect 35 0 34 0;
#X connect 36 0 34 1;
#X connect 37 0 41 0;
#X connect 37 0 46 0;
#X connect 38 0 40 0;
#X connect 38 0 20 0;
#X connect 38 0 44 0;
#X connect 40 0 28 0;
#X connect 42 0 43 0;
#X connect 43 0 22 0;
#X connect 45 0 48 0;
#X connect 46 0 36 0;
#X connect 47 0 25 0;
#X connect 48 0 22 0;
#X connect 49 0 50 0;
#X connect 50 0 3 0;
#X connect 53 0 15 0;
#X connect 54 0 35 1;
#X connect 57 0 24 1;
#X connect 59 0 60 0;
#X connect 60 0 72 0;
#X connect 61 0 62 0;
#X connect 62 0 74 0;
#X connect 64 0 63 1;
#X connect 65 0 63 0;
#X connect 66 0 63 0;
#X connect 67 0 68 0;
#X connect 67 1 68 1;
#X connect 69 0 68 0;
#X connect 70 0 68 0;
#X connect 71 0 68 0;
#X connect 79 0 49 0;
#X connect 80 0 0 0;
#X connect 83 0 60 0;
#X connect 84 0 62 0;
#X restore 288 118 pd playbackcontainer;
#X obj 200 790 r curenttimestamp;
#X obj 378 187 s curenttimestamp;
#X obj 508 60 r sliceStart;
#X obj 685 81 r sliceEnd;
#X floatatom 387 796 5 0 0 0 - - -;
#X connect 2 0 3 0;
#X connect 4 0 14 0;
#X connect 14 0 7 0;
#X connect 14 1 6 0;
#X connect 14 2 5 0;
#X connect 14 3 10 0;
#X connect 14 4 9 0;
#X connect 14 5 8 0;
#X connect 14 6 13 0;
#X connect 14 7 12 0;
#X connect 14 8 11 0;
#X connect 14 9 17 0;
#X connect 14 10 16 0;
#X connect 14 11 15 0;
#X connect 32 0 75 0;
#X connect 33 0 75 1;
#X connect 37 0 36 0;
#X connect 37 0 40 0;
#X connect 38 0 36 1;
#X connect 39 0 37 1;
#X connect 39 0 38 1;
#X connect 39 0 46 0;
#X connect 40 0 41 0;
#X connect 40 1 44 0;
#X connect 41 0 43 0;
#X connect 42 0 40 2;
#X connect 44 0 45 0;
#X connect 47 0 48 0;
#X connect 47 0 40 2;
#X connect 49 0 47 0;
#X connect 50 0 47 1;
#X connect 51 0 54 0;
#X connect 52 0 55 0;
#X connect 53 0 51 1;
#X connect 54 0 40 2;
#X connect 55 0 51 0;
#X connect 56 0 55 1;
#X connect 57 0 58 0;
#X connect 58 0 39 0;
#X connect 59 0 37 0;
#X connect 59 0 63 0;
#X connect 60 0 38 0;
#X connect 60 0 64 0;
#X connect 61 0 59 1;
#X connect 62 0 61 0;
#X connect 65 0 37 0;
#X connect 66 0 38 0;
#X connect 67 0 66 0;
#X connect 68 0 67 0;
#X connect 69 0 65 0;
#X connect 70 0 69 0;
#X connect 71 0 70 0;
#X connect 72 0 68 0;
#X connect 73 0 60 1;
#X connect 74 0 73 0;
#X connect 75 0 59 0;
#X connect 75 1 60 0;
#X connect 75 2 30 0;
#X connect 75 2 77 0;
#X connect 76 0 40 1;
#X connect 78 0 75 2;
#X connect 79 0 75 3;
#X connect 80 0 40 2;
