#N canvas -1920 -373 1920 980 12;
#N canvas 0 23 674 575 serialcom 0;
#X msg 218 99 devicename /dev/cu.usbmodem1413401;
#X msg 334 22 devices;
#X obj 125 207 comport 2 9600 /dev/cu.usbmodem1413401;
#X floatatom 101 304 5 0 0 0 - - -;
#X floatatom 227 245 5 0 0 0 - - -;
#X msg 120 128 open 2;
#X floatatom 156 336 5 0 0 0 - - -;
#X obj 136 372 ==;
#X floatatom 136 406 5 0 0 0 - - -;
#X obj 135 439 spigot;
#X floatatom 135 490 5 0 0 0 - - -;
#X obj 135 465 bng 15 250 50 0 empty empty empty 17 7 0 10 -262144
-1 -1;
#X obj 155 301 bng 15 250 50 0 empty empty empty 17 7 0 10 -262144
-1 -1;
#X floatatom 234 338 5 0 0 0 - - -;
#X obj 214 374 ==;
#X floatatom 214 408 5 0 0 0 - - -;
#X obj 213 441 spigot;
#X floatatom 213 492 5 0 0 0 - - -;
#X obj 213 467 bng 15 250 50 0 empty empty empty 17 7 0 10 -262144
-1 -1;
#X obj 233 303 bng 15 250 50 0 empty empty empty 17 7 0 10 -262144
-1 -1;
#X floatatom 311 336 5 0 0 0 - - -;
#X obj 291 372 ==;
#X floatatom 291 406 5 0 0 0 - - -;
#X obj 290 439 spigot;
#X floatatom 290 490 5 0 0 0 - - -;
#X obj 290 465 bng 15 250 50 0 empty empty empty 17 7 0 10 -262144
-1 -1;
#X obj 310 301 bng 15 250 50 0 empty empty empty 17 7 0 10 -262144
-1 -1;
#X floatatom 407 329 5 0 0 0 - - -;
#X obj 387 365 ==;
#X floatatom 387 399 5 0 0 0 - - -;
#X obj 386 432 spigot;
#X floatatom 386 483 5 0 0 0 - - -;
#X obj 386 458 bng 15 250 50 0 empty empty empty 17 7 0 10 -262144
-1 -1;
#X obj 406 294 bng 15 250 50 0 empty empty empty 17 7 0 10 -262144
-1 -1;
#X floatatom 485 331 5 0 0 0 - - -;
#X obj 465 367 ==;
#X floatatom 465 401 5 0 0 0 - - -;
#X obj 464 434 spigot;
#X floatatom 464 485 5 0 0 0 - - -;
#X obj 464 460 bng 15 250 50 0 empty empty empty 17 7 0 10 -262144
-1 -1;
#X obj 484 296 bng 15 250 50 0 empty empty empty 17 7 0 10 -262144
-1 -1;
#X floatatom 562 329 5 0 0 0 - - -;
#X obj 542 365 ==;
#X floatatom 542 399 5 0 0 0 - - -;
#X obj 541 432 spigot;
#X floatatom 541 483 5 0 0 0 - - -;
#X obj 541 458 bng 15 250 50 0 empty empty empty 17 7 0 10 -262144
-1 -1;
#X obj 561 294 bng 15 250 50 0 empty empty empty 17 7 0 10 -262144
-1 -1;
#X connect 0 0 2 0;
#X connect 1 0 2 0;
#X connect 2 0 3 0;
#X connect 2 0 4 0;
#X connect 2 0 12 0;
#X connect 2 0 19 0;
#X connect 2 0 26 0;
#X connect 4 0 7 0;
#X connect 4 0 14 0;
#X connect 4 0 21 0;
#X connect 4 0 33 0;
#X connect 4 0 40 0;
#X connect 4 0 47 0;
#X connect 4 0 28 0;
#X connect 4 0 35 0;
#X connect 5 0 2 0;
#X connect 6 0 7 1;
#X connect 7 0 8 0;
#X connect 8 0 9 1;
#X connect 8 0 9 0;
#X connect 9 0 11 0;
#X connect 11 0 10 0;
#X connect 12 0 6 0;
#X connect 13 0 14 1;
#X connect 14 0 15 0;
#X connect 15 0 16 1;
#X connect 15 0 16 0;
#X connect 16 0 18 0;
#X connect 18 0 17 0;
#X connect 19 0 13 0;
#X connect 20 0 21 1;
#X connect 21 0 22 0;
#X connect 22 0 23 1;
#X connect 22 0 23 0;
#X connect 23 0 25 0;
#X connect 25 0 24 0;
#X connect 26 0 20 0;
#X connect 27 0 28 1;
#X connect 28 0 29 0;
#X connect 29 0 30 1;
#X connect 29 0 30 0;
#X connect 30 0 32 0;
#X connect 32 0 31 0;
#X connect 33 0 27 0;
#X connect 34 0 35 1;
#X connect 35 0 36 0;
#X connect 36 0 37 1;
#X connect 36 0 37 0;
#X connect 37 0 39 0;
#X connect 39 0 38 0;
#X connect 40 0 34 0;
#X connect 41 0 42 1;
#X connect 42 0 43 0;
#X connect 43 0 44 1;
#X connect 43 0 44 0;
#X connect 44 0 46 0;
#X connect 46 0 45 0;
#X connect 47 0 41 0;
#X restore 1337 456 pd serialcom;
#X text 1434 455 Recieve Messages From User Input;
#X obj 950 28 loadbang;
#X obj 1129 68 netreceive 3003;
#X floatatom 1029 164 5 0 0 0 - - -;
#X floatatom 1090 146 5 0 0 0 - - -;
#X floatatom 972 191 5 0 0 0 - - -;
#X floatatom 1324 190 5 0 0 0 - - -;
#X floatatom 1396 190 5 0 0 0 - - -;
#X floatatom 1259 190 5 0 0 0 - - -;
#X floatatom 1083 305 5 0 0 0 - - -;
#X floatatom 1142 305 5 0 0 0 - - -;
#X floatatom 1025 305 5 0 0 0 - - -;
#X obj 1090 118 route 0 1 2 3 4 5 6 7 8 9 10 11;
#X floatatom 1325 349 5 0 0 0 - - -;
#X floatatom 1412 349 5 0 0 0 - - -;
#X floatatom 1248 349 5 0 0 0 - - -;
#X text 1412 375 Slice 4 Delay Val;
#X text 1286 382 Slice 4 LPF Val;
#X text 1190 382 Slice 4 Z Val;
#X text 1115 348 Slice 3 Delay Val;
#X text 1044 348 Slice 3 LPF Val;
#X text 948 348 Slice3 1 Z Val;
#X text 1196 189 Slice 2 Z Val;
#X text 1324 216 Slice 2 LPO Val;
#X text 1396 216 Slice 2 Delay Val;
#X text 1090 172 Slice 1 Delay Val;
#X text 1029 190 Slice 1 LPO Val;
#X text 956 212 Slice 1 Z Val;
#X obj 528 190 hsl 195 15 0 1 0 0 empty empty empty -2 -8 0 10 -262144
-1 -1 8887 1;
#X text 560 163 Playhead;
#X obj 273 47 bng 15 250 50 0 empty empty empty 17 7 0 10 -262144 -1
-1;
#X obj 304 41 bng 15 250 50 0 empty empty empty 17 7 0 10 -262144 -1
-1;
#X text 376 67 Record Voice;
#X text 273 71 Load File;
#X obj 176 692 dac~ 1 2;
#X obj 58 654 *~;
#X obj 381 654 *~;
#X obj 199 564 vsl 15 50 0 10 0 0 empty empty empty 0 -9 0 10 -262144
-1 -1 1470 1;
#N canvas -1822 -373 1711 855 analyzer 1;
#X obj 18 99 bonk~;
#X obj 91 99 tgl 15 0 empty empty empty 0 -6 0 8 -262144 -1 -1 0 1
;
#X obj 168 219 print cooked;
#X obj 40 134 s bonk-cooked;
#X msg 19 40 thresh 2.5 50;
#X obj 55 244 unpack f f f;
#X obj 145 23 inlet~;
#X floatatom 96 326 5 0 0 0 - - -;
#X floatatom 364 415 5 0 0 0 - - -;
#X obj 410 71 inlet;
#X floatatom 400 146 5 0 0 0 - - -;
#X obj 125 473 bng 15 250 50 0 empty empty empty 17 7 0 10 -262144
-1 -1;
#X obj 178 494 float;
#X obj 249 499 +;
#X msg 319 417;
#X floatatom 276 461 5 0 0 0 - - -;
#X floatatom 185 550 5 0 0 0 - - -;
#X floatatom 135 356 5 0 0 0 - - -;
#X floatatom 16 422 5 0 0 0 - - -;
#X floatatom 195 406 5 0 0 0 - - -;
#X obj 200 364 bng 15 250 50 0 empty empty empty 17 7 0 10 -262144
-1 -1;
#X obj 421 207 s currentTime;
#X obj 65 630 r currentTime;
#X floatatom 123 699 5 0 0 0 - - -;
#X obj 542 399 tgl 15 0 empty empty empty 17 7 0 10 -262144 -1 -1 0
1;
#X obj 546 458 metro 500;
#X obj 543 555 float;
#X obj 615 553 +;
#X floatatom 636 517 5 0 0 0 - - -;
#X floatatom 475 454 5 0 0 0 - - -;
#X floatatom 572 500 5 0 0 0 - - -;
#X obj 543 514 bng 15 250 50 0 empty empty empty 17 7 0 10 -262144
-1 -1;
#X floatatom 542 661 5 0 0 0 - - -;
#X floatatom 543 583 5 0 10 0 - - -;
#X obj 473 407 bng 15 250 50 0 empty empty empty 17 7 0 10 -262144
-1 -1;
#X text 902 240 Clear Array;
#X obj 964 311 tgl 15 0 empty empty empty 17 7 0 10 -262144 -1 -1 0
1;
#X obj 981 517 float;
#X obj 1053 515 +;
#X floatatom 1074 479 5 0 0 0 - - -;
#X floatatom 895 321 5 0 0 0 - - -;
#X floatatom 992 367 5 0 0 0 - - -;
#X obj 963 381 bng 15 250 50 0 empty empty empty 17 7 0 10 -262144
-1 -1;
#X floatatom 981 545 5 0 10 0 - - -;
#X obj 893 274 bng 15 250 50 0 empty empty empty 17 7 0 10 -262144
-1 -1;
#X floatatom 929 679 5 0 0 0 - - -;
#X obj 985 631 bng 15 250 50 0 empty empty empty 17 7 0 10 -262144
-1 -1;
#X obj 964 341 metro 100;
#X obj 495 719 outlet;
#X obj 639 70 inlet;
#X obj 638 121 s chooseSlicedIndex;
#X obj 371 524 r chooseSlicedIndex;
#X obj 749 543 -;
#X obj 709 715 float;
#X obj 781 713 +;
#X floatatom 805 676 5 0 0 0 - - -;
#X floatatom 738 660 5 0 0 0 - - -;
#X obj 709 674 bng 15 250 50 0 empty empty empty 17 7 0 10 -262144
-1 -1;
#X floatatom 710 744 5 0 10 0 - - -;
#X obj 710 774 outlet;
#X obj 502 37 table onsetsTable;
#X obj 74 155 spigot;
#X obj 153 826 tabwrite onsetsTable;
#X obj 925 713 tabwrite onsetsTable;
#X obj 543 619 tabread onsetsTable;
#X floatatom 178 677 5 0 0 0 - - -;
#X msg 47 697;
#X obj 888 590 moses 20;
#X obj 957 269 bng 15 250 50 0 empty empty empty 17 7 0 10 -262144
-1 -1;
#X text 797 653 + 0.15;
#X text 1073 452 +1;
#X obj 1006 42 loadbang;
#X obj 805 616 r increment;
#X obj 1127 430 r addIndex;
#X obj 831 63 inlet;
#X obj 313 24 inlet;
#X obj 826 119 s resetCounter;
#X obj 224 92 r resetCounter;
#X obj 81 383 > 50;
#X obj 20 13 loadbang;
#N canvas 410 169 989 462 counter 1;
#X obj 302 163 tgl 15 0 empty empty empty 17 7 0 10 -262144 -1 -1 0
1;
#X obj 301 274 float;
#X obj 373 272 +;
#X floatatom 394 236 5 0 0 0 - - -;
#X floatatom 233 173 5 0 0 0 - - -;
#X obj 301 233 bng 15 250 50 0 empty empty empty 17 7 0 10 -262144
-1 -1;
#X floatatom 301 302 5 0 10 0 - - -;
#X obj 231 126 bng 15 250 50 0 empty empty empty 17 7 0 10 -262144
-1 -1;
#X obj 295 121 bng 15 250 50 0 empty empty empty 17 7 0 10 -262144
-1 -1;
#X obj 261 51 inlet;
#X obj 445 47 inlet;
#X obj 300 383 outlet;
#X obj 302 193 metro 300;
#X obj 144 330 moses 4;
#X obj 538 26 loadbang;
#X msg 532 80 \; addIndex 1 \;;
#X obj 466 177 r addIndex;
#X connect 0 0 12 0;
#X connect 1 0 2 0;
#X connect 1 0 6 0;
#X connect 2 0 1 1;
#X connect 3 0 2 1;
#X connect 4 0 1 0;
#X connect 4 0 11 0;
#X connect 5 0 1 0;
#X connect 6 0 11 0;
#X connect 6 0 13 0;
#X connect 7 0 4 0;
#X connect 8 0 0 0;
#X connect 9 0 8 0;
#X connect 10 0 13 1;
#X connect 12 0 5 0;
#X connect 13 1 7 0;
#X connect 14 0 15 0;
#X connect 16 0 3 0;
#X restore 1310 303 pd counter;
#X floatatom 1310 331 5 0 0 0 - - -;
#X obj 1310 278 bng 15 250 50 0 empty empty empty 17 7 0 10 -262144
-1 -1;
#X floatatom 1377 278 5 0 0 0 - - -;
#X obj 1346 46 table manualOnsets;
#X obj 1310 426 tgl 15 0 empty empty empty 17 7 0 10 -262144 -1 -1
0 1;
#X obj 1327 632 float;
#X obj 1399 630 +;
#X floatatom 1420 594 5 0 0 0 - - -;
#X floatatom 1338 482 5 0 0 0 - - -;
#X obj 1309 496 bng 15 250 50 0 empty empty empty 17 7 0 10 -262144
-1 -1;
#X floatatom 1327 660 5 0 10 0 - - -;
#X text 1419 567 +1;
#X obj 1419 529 r manualIncrement;
#X floatatom 1262 570 5 0 0 0 - - -;
#X obj 1260 523 bng 15 250 50 0 empty empty empty 17 7 0 10 -262144
-1 -1;
#X obj 1310 456 metro 500;
#X obj 1258 446 bng 15 250 50 0 empty empty empty 17 7 0 10 -262144
-1 -1;
#X obj 1201 685 moses 0.8;
#X obj 1266 770 tabwrite manualOnsets;
#X obj 1451 630 float;
#X obj 1523 628 +;
#X floatatom 1544 592 5 0 0 0 - - -;
#X floatatom 1451 658 5 0 10 0 - - -;
#X obj 1553 541 r addIndex;
#X obj 385 620 tabread manualOnsets;
#X msg 1007 72 \; addIndex 1 \; increment 0.15 \; resetCounter 1 \;
manualIncrement 0.2 \;;
#X connect 0 1 3 0;
#X connect 0 1 61 0;
#X connect 1 0 61 1;
#X connect 4 0 0 0;
#X connect 5 1 7 0;
#X connect 5 2 8 0;
#X connect 6 0 0 0;
#X connect 7 0 78 0;
#X connect 9 0 10 0;
#X connect 10 0 21 0;
#X connect 10 0 62 0;
#X connect 11 0 12 0;
#X connect 12 0 13 0;
#X connect 12 0 16 0;
#X connect 13 0 12 1;
#X connect 14 0 15 0;
#X connect 15 0 13 1;
#X connect 16 0 62 1;
#X connect 17 0 78 1;
#X connect 19 0 12 0;
#X connect 20 0 19 0;
#X connect 22 0 23 0;
#X connect 22 0 65 0;
#X connect 22 0 66 0;
#X connect 24 0 25 0;
#X connect 25 0 31 0;
#X connect 26 0 27 0;
#X connect 26 0 33 0;
#X connect 27 0 26 1;
#X connect 28 0 27 1;
#X connect 29 0 26 0;
#X connect 30 0 26 0;
#X connect 31 0 26 0;
#X connect 32 0 48 0;
#X connect 32 0 53 0;
#X connect 32 0 57 0;
#X connect 33 0 64 0;
#X connect 33 0 105 0;
#X connect 34 0 29 0;
#X connect 36 0 47 0;
#X connect 37 0 38 0;
#X connect 37 0 43 0;
#X connect 38 0 37 1;
#X connect 39 0 38 1;
#X connect 40 0 37 0;
#X connect 41 0 37 0;
#X connect 42 0 37 0;
#X connect 43 0 46 0;
#X connect 43 0 63 1;
#X connect 43 0 67 0;
#X connect 44 0 40 0;
#X connect 45 0 63 0;
#X connect 46 0 45 0;
#X connect 47 0 42 0;
#X connect 49 0 50 0;
#X connect 51 0 33 0;
#X connect 53 0 58 0;
#X connect 53 0 54 0;
#X connect 54 0 53 1;
#X connect 55 0 54 1;
#X connect 56 0 53 0;
#X connect 57 0 53 0;
#X connect 58 0 59 0;
#X connect 61 0 5 0;
#X connect 61 0 2 0;
#X connect 67 1 44 0;
#X connect 67 1 68 0;
#X connect 68 0 36 0;
#X connect 71 0 106 0;
#X connect 72 0 55 0;
#X connect 73 0 39 0;
#X connect 74 0 76 0;
#X connect 75 0 1 0;
#X connect 77 0 20 0;
#X connect 78 0 18 0;
#X connect 78 0 11 0;
#X connect 78 0 15 0;
#X connect 79 0 4 0;
#X connect 80 0 81 0;
#X connect 82 0 80 0;
#X connect 83 0 80 1;
#X connect 85 0 96 0;
#X connect 86 0 87 0;
#X connect 86 0 91 0;
#X connect 86 0 98 0;
#X connect 87 0 86 1;
#X connect 88 0 87 1;
#X connect 89 0 86 0;
#X connect 90 0 86 0;
#X connect 90 0 100 0;
#X connect 91 0 99 0;
#X connect 93 0 88 0;
#X connect 94 0 86 0;
#X connect 94 0 100 0;
#X connect 95 0 94 0;
#X connect 96 0 90 0;
#X connect 97 0 85 0;
#X connect 98 1 97 0;
#X connect 100 0 101 0;
#X connect 100 0 103 0;
#X connect 101 0 100 1;
#X connect 102 0 101 1;
#X connect 103 0 99 1;
#X connect 104 0 102 0;
#X connect 105 0 32 0;
#X restore 164 854 pd analyzer;
#X floatatom 164 882 5 0 0 0 - - -;
#X obj 164 909 s sliceStart;
#X floatatom 269 893 5 0 0 0 - - -;
#X obj 269 920 s sliceEnd;
#X floatatom 196 654 5 0 0 0 - - -;
#N canvas 779 184 661 462 counter 1;
#X obj 302 163 tgl 15 0 empty empty empty 17 7 0 10 -262144 -1 -1 1
1;
#X obj 301 274 float;
#X obj 373 272 +;
#X floatatom 394 236 5 0 0 0 - - -;
#X floatatom 233 173 5 0 0 0 - - -;
#X obj 301 233 bng 15 250 50 0 empty empty empty 17 7 0 10 -262144
-1 -1;
#X floatatom 301 302 5 0 10 0 - - -;
#X obj 231 126 bng 15 250 50 0 empty empty empty 17 7 0 10 -262144
-1 -1;
#X obj 295 121 bng 15 250 50 0 empty empty empty 17 7 0 10 -262144
-1 -1;
#X obj 261 51 inlet;
#X obj 445 47 inlet;
#X obj 300 383 outlet;
#X obj 302 193 metro 300;
#X obj 144 330 moses 4;
#X connect 0 0 12 0;
#X connect 1 0 2 0;
#X connect 1 0 6 0;
#X connect 2 0 1 1;
#X connect 3 0 2 1;
#X connect 4 0 1 0;
#X connect 4 0 11 0;
#X connect 5 0 1 0;
#X connect 6 0 11 0;
#X connect 6 0 13 0;
#X connect 7 0 4 0;
#X connect 8 0 0 0;
#X connect 9 0 8 0;
#X connect 10 0 13 1;
#X connect 12 0 5 0;
#X connect 13 1 7 0;
#X restore 1298 539 pd counter;
#X floatatom 1298 567 5 0 0 0 - - -;
#X obj 1298 514 bng 15 250 50 0 empty empty empty 17 7 0 10 -262144
-1 -1;
#X floatatom 1365 514 5 0 0 0 - - -;
#X obj 199 507 r volume;
#X floatatom 199 535 5 0 0 0 - - -;
#X obj 195 279 lop~;
#X obj 353 279 lop~;
#X floatatom 226 248 5 0 0 0 - - -;
#X obj 245 213 r lowpass;
#X obj 186 349 delwrite~ delayLeft 4000;
#X obj 372 349 delwrite~ delayRight 4000;
#X obj 67 437 vd~ delayLeft;
#X obj 404 570 vd~ delayRight;
#X obj 427 458 sig~;
#X floatatom 427 486 5 0 0 0 - - -;
#X obj 67 409 sig~;
#X floatatom 64 333 5 0 0 0 - - -;
#X floatatom 378 246 5 0 0 0 - - -;
#X obj 378 218 r lowpass;
#N canvas 177 23 1673 979 playbackcontainer 0;
#X obj 289 48 bng 15 250 50 0 empty empty empty 17 7 0 10 -262144 -1
-1;
#X obj 287 72 openpanel;
#X msg 287 109 read -resize \$1 channelL channelR;
#X obj 288 141 soundfiler;
#X floatatom 288 185 12 0 0 0 - - -;
#X obj 286 218 expr 44100 / $f1;
#X obj 418 219 s sampleSize;
#X floatatom 118 285 5 0 0 0 - - -;
#X obj 285 394 phasor~;
#X obj 285 439 *~;
#X obj 345 420 r sampleSize;
#X obj 146 553 tabread4~ channelL;
#X obj 128 45 \; pd dsp \$1;
#X obj 345 546 tabread4~ channelR;
#X obj 634 304 metro 50;
#X obj 633 351 snapshot~;
#X floatatom 633 386 12 0 0 0 - - -;
#X obj 638 481 /;
#X obj 655 423 r sampleSize;
#X floatatom 636 523 5 0 0 0 - - -;
#X obj 627 275 tgl 15 0 empty empty empty 17 7 0 10 -262144 -1 -1 1
1;
#X obj 682 707 hsl 195 15 0 1 0 0 empty empty empty -2 -8 0 10 -262144
-1 -1 8887 1;
#X obj 109 394 hsl 100 15 -1 1 0 0 empty empty empty -2 -8 0 10 -262144
-1 -1 4950 1;
#X floatatom 171 428 5 0 0 0 - - -;
#X floatatom 709 583 5 0 0 0 - - -;
#X obj 709 623 s retrig;
#X obj 385 262 r retrig;
#X obj 743 358 s startBufferValue;
#X obj 415 306 r startBufferValue;
#X floatatom 383 341 5 0 0 0 - - -;
#X obj 385 297 bng 15 250 50 0 empty empty empty 17 7 0 10 -262144
-1 -1;
#X text 189 371 Speed;
#X obj 97 32;
#X obj 552 840 spigot;
#X floatatom 627 805 5 0 0 0 - - -;
#X obj 562 881 bng 15 250 50 0 empty empty empty 17 7 0 10 -262144
-1 -1;
#X obj 684 192 bng 15 250 50 0 empty empty empty 17 7 0 10 -262144
-1 -1;
#X text 712 192 Start Analysis;
#X msg 724 237 0;
#X obj 536 914 s stopPlayback;
#X obj 174 287 r stopPlayback;
#X msg 153 358 0;
#X obj 852 231 s startPlayback;
#X obj 118 219 r startPlayback;
#X obj 736 550 r sliceEnd;
#X obj 540 45 bng 15 250 50 0 empty empty empty 17 7 0 10 -262144 -1
-1;
#X msg 540 108 read -resize ./recordedSample.wav channelL channelR
;
#X text 907 211 comment;
#X obj 367 495 s~ audioPlayback;
#X obj 719 318 r~ audioPlayback;
#X floatatom 618 738 5 0 0 0 - - -;
#X text 832 676 Playhead;
#X text 322 737 Stop Playback at end of sample;
#X obj 714 491 r endBufferValue;
#X obj 1066 757 tabplay~;
#X obj 893 578 hsl 195 15 -1 1 0 0 empty empty empty -2 -8 0 10 -262144
-1 -1 0 1;
#X floatatom 982 696 5 0 0 0 - - -;
#X obj 1245 570 hsl 195 15 -1 1 0 0 empty empty empty -2 -8 0 10 -262144
-1 -1 0 1;
#X floatatom 1252 686 5 0 0 0 - - -;
#X obj 1521 779 spigot;
#X obj 1571 740 tgl 15 0 empty empty empty 17 7 0 10 -262144 -1 -1
0 1;
#X obj 1499 648 r stopPlayback;
#X obj 1546 750 bng 15 250 50 0 empty empty empty 17 7 0 10 -262144
-1 -1;
#X obj 982 723 s startBufferValue;
#X text 891 547 Set Slice Start;
#X obj 1252 717 s endBufferValue;
#X text 1249 542 Set Slice End;
#N canvas 0 22 450 278 (subpatch) 0;
#X array channelL 124480 float 2;
#X coords 0 1 124480 -1 200 140 1;
#X restore 1051 56 graph;
#N canvas 0 22 450 278 (subpatch) 0;
#X array channelR 124480 float 2;
#X coords 0 1 124480 -1 200 140 1 0 0;
#X restore 1295 60 graph;
#X obj 680 739 outlet;
#X obj 545 12 inlet;
#X obj 293 15 inlet;
#X obj 141 634 outlet~;
#X obj 352 640 outlet~;
#X obj 978 631 inlet;
#X obj 1269 628 inlet;
#X floatatom -3 127 5 0 0 0 - - -;
#X obj 926 22 loadbang;
#X obj 638 776 r stopPlayback;
#X obj 628 10 inlet;
#X obj 628 52 s startPlayback;
#X obj 649 551 moses 0.955;
#X obj 761 11 inlet;
#X obj 761 53 s stopPlayback;
#X floatatom 934 295 5 0 0 0 - - -;
#X obj 931 364 s endBufferValue;
#X msg 927 52 \; stopPlayback 1 \; sampleEnd 0.955 \;;
#X obj 1042 267 r sampleEnd;
#X obj 792 915 outlet;
#X obj 572 766 > 0.992;
#X obj 595 232 loadbang;
#X connect 0 0 1 0;
#X connect 1 0 2 0;
#X connect 2 0 3 0;
#X connect 3 0 4 0;
#X connect 4 0 5 0;
#X connect 4 0 6 0;
#X connect 5 0 7 0;
#X connect 5 0 8 0;
#X connect 7 0 22 0;
#X connect 8 0 9 0;
#X connect 9 0 11 0;
#X connect 9 0 13 0;
#X connect 9 0 48 0;
#X connect 10 0 9 1;
#X connect 11 0 72 0;
#X connect 13 0 73 0;
#X connect 14 0 15 0;
#X connect 15 0 16 0;
#X connect 16 0 17 0;
#X connect 17 0 19 0;
#X connect 18 0 17 1;
#X connect 19 0 21 0;
#X connect 19 0 81 0;
#X connect 19 0 89 0;
#X connect 20 0 14 0;
#X connect 21 0 69 0;
#X connect 22 0 23 0;
#X connect 23 0 8 0;
#X connect 24 0 25 0;
#X connect 26 0 30 0;
#X connect 28 0 29 0;
#X connect 29 0 8 1;
#X connect 30 0 29 0;
#X connect 33 0 35 0;
#X connect 34 0 33 1;
#X connect 35 0 39 0;
#X connect 36 0 38 0;
#X connect 36 0 42 0;
#X connect 36 0 84 0;
#X connect 38 0 27 0;
#X connect 40 0 41 0;
#X connect 41 0 22 0;
#X connect 43 0 7 0;
#X connect 44 0 24 0;
#X connect 45 0 46 0;
#X connect 46 0 3 0;
#X connect 46 0 36 0;
#X connect 49 0 15 0;
#X connect 50 0 89 1;
#X connect 53 0 81 1;
#X connect 55 0 56 0;
#X connect 56 0 63 0;
#X connect 57 0 58 0;
#X connect 58 0 65 0;
#X connect 60 0 59 1;
#X connect 61 0 59 0;
#X connect 62 0 59 0;
#X connect 70 0 45 0;
#X connect 71 0 0 0;
#X connect 74 0 56 0;
#X connect 75 0 58 0;
#X connect 77 0 86 0;
#X connect 78 0 34 0;
#X connect 79 0 80 0;
#X connect 81 1 24 0;
#X connect 82 0 83 0;
#X connect 84 0 85 0;
#X connect 87 0 84 0;
#X connect 89 0 34 0;
#X connect 89 0 33 0;
#X connect 90 0 20 0;
#X restore 273 98 pd playbackcontainer;
#X obj 255 775 r curenttimestamp;
#X obj 378 190 s curenttimestamp;
#X obj 508 47 r sliceStart;
#X obj 685 68 r sliceEnd;
#X floatatom 415 836 5 0 0 0 - - -;
#X obj 595 357 adc~;
#X obj 635 420 writesf~ 2;
#X msg 671 248 open recordedSample.wav;
#X msg 680 349 start;
#X msg 738 349 stop;
#X floatatom 62 143 5 0 0 0 - - -;
#X obj 62 170 s lowpass;
#X obj 795 424 del 1000;
#X obj 776 457 s loadSample;
#X obj 776 432 bng 15 250 50 0 empty empty empty 17 7 0 10 -262144
-1 -1;
#X obj 296 8 r loadSample;
#X obj 802 373 bng 15 250 50 0 empty empty empty 17 7 0 10 -262144
-1 -1;
#X obj 779 744 bng 15 250 50 0 empty empty empty 17 7 0 10 -262144
-1 -1;
#X floatatom 780 772 5 0 0 0 - - -;
#X obj 1163 772 bng 15 250 50 0 empty empty empty 17 7 0 10 -262144
-1 -1;
#X floatatom 1163 801 5 0 0 0 - - -;
#X obj 1360 759 bng 15 250 50 0 empty empty empty 17 7 0 10 -262144
-1 -1;
#X floatatom 1338 802 5 0 0 0 - - -;
#X obj 1688 785 bng 15 250 50 0 empty empty empty 17 7 0 10 -262144
-1 -1;
#X floatatom 1691 808 5 0 0 0 - - -;
#X obj 414 909 bng 15 250 50 0 empty empty empty 17 7 0 10 -262144
-1 -1;
#X obj 414 930 s setSpeed;
#X obj 339 40 r setSpeed;
#X obj 37 37;
#X obj 37 37;
#X obj 37 60;
#X obj 37 37;
#X floatatom 655 500 0 0 0 0 - - -;
#X obj 637 451 notein;
#X floatatom 612 492 0 0 0 0 - - -;
#X floatatom 676 477 0 0 0 0 - - -;
#X text 686 503 velocity;
#X text 687 450 (omni);
#X text 1129 505 note;
#X obj 1176 550 print;
#X obj 1105 533 pack f f;
#X obj 798 612 tgl 15 0 empty empty empty 17 7 0 10 -262144 -1 -1 0
1;
#X obj 1159 643 tgl 15 0 empty empty empty 17 7 0 10 -262144 -1 -1
0 1;
#X obj 1382 692 tgl 15 0 empty empty empty 17 7 0 10 -262144 -1 -1
0 1;
#X obj 1683 705 tgl 15 0 empty empty empty 17 7 0 10 -262144 -1 -1
0 1;
#X obj 1098 575 route 50 45 51 49;
#X obj 844 748 s stopPlay;
#X obj 451 28 r stopPlay;
#X floatatom 801 685 5 0 0 0 - - -;
#X obj 807 716 route 127 0;
#X obj 1296 590 route 0 1 2 3;
#X obj 1126 690 spigot;
#X obj 1348 717 spigot;
#X obj 1660 752 spigot;
#X obj 780 642 spigot;
#X obj 1225 728 s stopPlay;
#X floatatom 1182 665 5 0 0 0 - - -;
#X obj 1188 696 route 127 0;
#X obj 1452 778 s stopPlay;
#X floatatom 1413 710 5 0 0 0 - - -;
#X obj 1419 741 route 127 0;
#X obj 1778 788 s stopPlay;
#X floatatom 1735 725 5 0 0 0 - - -;
#X obj 1741 756 route 127 0;
#X obj 700 740 r slice1;
#X obj 1198 769 r slice2;
#X obj 1376 778 r slice3;
#X obj 1789 819 r slice4;
#X obj 680 312 del 1000;
#X obj 682 280 bng 15 250 50 0 empty empty empty 17 7 0 10 -262144
-1 -1;
#X obj 1097 437 s startStopBonk;
#X obj 464 138 s startStopBonk;
#X obj 144 750 r startStopBonk;
#X obj 296 816 r counter;
#X obj 963 437 s startStopBonk;
#X obj 885 436 s counter;
#X obj 1068 407 del 10000;
#X obj 64 305 r delayValue;
#X obj 427 430 r delayValue;
#X msg 950 56 \; volume 3 \; lowpass 2000 \; delayValue 0 \; slice1
0 \; slice2 1 \; slice3 2 \; slice4 3 \;;
#X obj 269 564 freeverb~;
#X msg 254 420 roomsize \$1;
#X msg 345 420 damping \$1;
#X floatatom 257 383 5 0 1 0 - - -;
#X floatatom 366 387 5 0 1 0 - - -;
#X obj 939 246 s LPF1;
#X obj 995 243 s DEL1;
#X obj 1062 241 s REV1;
#X obj 860 775 r LPF1;
#X obj 916 772 r DEL1;
#X obj 983 770 r REV1;
#X floatatom 858 802 5 0 0 0 - - -;
#X floatatom 915 800 5 0 0 0 - - -;
#X floatatom 981 804 5 0 0 0 - - -;
#X obj 847 848 s lowpass;
#X obj 925 850 s delayValue;
#X obj 981 883 s reverbVal;
#X obj 1280 250 s LPF2;
#X obj 1336 247 s DEL2;
#X obj 1403 245 s REV2;
#X connect 2 0 145 0;
#X connect 3 0 13 0;
#X connect 4 0 152 0;
#X connect 5 0 153 0;
#X connect 6 0 151 0;
#X connect 7 0 164 0;
#X connect 8 0 165 0;
#X connect 9 0 163 0;
#X connect 13 0 6 0;
#X connect 13 1 5 0;
#X connect 13 2 4 0;
#X connect 13 3 9 0;
#X connect 13 4 8 0;
#X connect 13 5 7 0;
#X connect 13 6 12 0;
#X connect 13 7 11 0;
#X connect 13 8 10 0;
#X connect 13 9 16 0;
#X connect 13 10 15 0;
#X connect 13 11 14 0;
#X connect 31 0 65 0;
#X connect 32 0 65 1;
#X connect 36 0 35 0;
#X connect 36 0 39 0;
#X connect 37 0 35 1;
#X connect 38 0 36 1;
#X connect 38 0 37 1;
#X connect 38 0 44 0;
#X connect 39 0 40 0;
#X connect 39 1 42 0;
#X connect 40 0 41 0;
#X connect 42 0 43 0;
#X connect 45 0 46 0;
#X connect 46 0 116 0;
#X connect 47 0 45 0;
#X connect 48 0 45 1;
#X connect 49 0 50 0;
#X connect 50 0 38 0;
#X connect 51 0 55 0;
#X connect 51 0 146 0;
#X connect 52 0 56 0;
#X connect 52 0 146 1;
#X connect 53 0 51 1;
#X connect 54 0 53 0;
#X connect 57 0 36 0;
#X connect 58 0 37 0;
#X connect 59 0 58 0;
#X connect 60 0 59 0;
#X connect 61 0 57 0;
#X connect 62 0 61 0;
#X connect 63 0 52 1;
#X connect 64 0 63 0;
#X connect 65 0 51 0;
#X connect 65 1 52 0;
#X connect 65 2 29 0;
#X connect 65 2 67 0;
#X connect 65 3 137 0;
#X connect 66 0 39 2;
#X connect 68 0 65 4;
#X connect 69 0 65 5;
#X connect 70 0 39 3;
#X connect 70 0 91 0;
#X connect 71 0 72 0;
#X connect 71 1 72 1;
#X connect 73 0 72 0;
#X connect 73 0 135 0;
#X connect 74 0 72 0;
#X connect 75 0 72 0;
#X connect 75 0 82 0;
#X connect 76 0 77 0;
#X connect 78 0 80 0;
#X connect 80 0 79 0;
#X connect 81 0 32 0;
#X connect 82 0 78 0;
#X connect 82 0 141 0;
#X connect 82 0 140 0;
#X connect 82 0 142 0;
#X connect 83 0 84 0;
#X connect 84 0 70 0;
#X connect 85 0 86 0;
#X connect 86 0 70 0;
#X connect 87 0 88 0;
#X connect 88 0 70 0;
#X connect 89 0 90 0;
#X connect 90 0 70 0;
#X connect 91 0 92 0;
#X connect 93 0 65 2;
#X connect 95 0 96 0;
#X connect 98 0 106 1;
#X connect 99 0 100 0;
#X connect 99 1 98 0;
#X connect 99 2 101 0;
#X connect 100 0 106 0;
#X connect 106 0 105 0;
#X connect 106 0 111 0;
#X connect 107 0 120 1;
#X connect 108 0 117 1;
#X connect 109 0 118 1;
#X connect 110 0 119 1;
#X connect 111 0 107 0;
#X connect 111 0 114 0;
#X connect 111 1 108 0;
#X connect 111 1 122 0;
#X connect 111 2 109 0;
#X connect 111 2 125 0;
#X connect 111 3 110 0;
#X connect 111 3 128 0;
#X connect 113 0 65 3;
#X connect 114 0 115 0;
#X connect 115 0 83 0;
#X connect 115 1 112 0;
#X connect 116 0 120 0;
#X connect 116 1 117 0;
#X connect 116 2 118 0;
#X connect 116 3 119 0;
#X connect 117 0 85 0;
#X connect 118 0 87 0;
#X connect 119 0 89 0;
#X connect 120 0 83 0;
#X connect 122 0 123 0;
#X connect 123 0 85 0;
#X connect 123 1 121 0;
#X connect 125 0 126 0;
#X connect 126 0 87 0;
#X connect 126 1 124 0;
#X connect 128 0 129 0;
#X connect 129 0 89 0;
#X connect 129 1 127 0;
#X connect 130 0 84 0;
#X connect 131 0 86 0;
#X connect 132 0 88 0;
#X connect 133 0 90 0;
#X connect 134 0 74 0;
#X connect 135 0 134 0;
#X connect 138 0 39 1;
#X connect 139 0 39 4;
#X connect 142 0 136 0;
#X connect 143 0 62 0;
#X connect 144 0 60 0;
#X connect 146 0 36 0;
#X connect 146 1 37 0;
#X connect 147 0 146 0;
#X connect 148 0 146 0;
#X connect 149 0 147 0;
#X connect 150 0 148 0;
#X connect 154 0 157 0;
#X connect 155 0 158 0;
#X connect 156 0 159 0;
#X connect 157 0 160 0;
#X connect 158 0 161 0;
#X connect 159 0 162 0;
